<svg width="24" height="24" viewBox="0 0 24 24" fill="none" xmlns="http://www.w3.org/2000/svg">
<path opacity="0.4" d="M18 18.8617H17.24C16.44 18.8617 15.68 19.1717 15.12 19.7317L13.41 21.4217C12.63 22.1917 11.36 22.1917 10.58 21.4217L8.87 19.7317C8.31 19.1717 7.54 18.8617 6.75 18.8617H6C4.34 18.8617 3 17.5317 3 15.8917V4.98169C3 3.34169 4.34 2.01172 6 2.01172H18C19.66 2.01172 21 3.34169 21 4.98169V15.8917C21 17.5217 19.66 18.8617 18 18.8617Z" fill="#292D32"/>
<path d="M10.38 14.5109H7.69998C7.25998 14.5109 6.84998 14.3009 6.58998 13.9409C6.33998 13.6009 6.27998 13.1809 6.39998 12.7809C6.74998 11.7109 7.60998 11.1309 8.36998 10.6109C9.16998 10.0709 9.61998 9.73094 9.61998 9.15094C9.61998 8.63094 9.19998 8.21094 8.67998 8.21094C8.15998 8.21094 7.73999 8.63094 7.73999 9.15094C7.73999 9.56094 7.39999 9.90094 6.98999 9.90094C6.57999 9.90094 6.23999 9.56094 6.23999 9.15094C6.23999 7.81094 7.32998 6.71094 8.67998 6.71094C10.03 6.71094 11.12 7.80094 11.12 9.15094C11.12 10.5609 10.06 11.2809 9.20999 11.8609C8.67999 12.2209 8.17998 12.5609 7.92998 13.0109H10.37C10.78 13.0109 11.12 13.3509 11.12 13.7609C11.12 14.1709 10.79 14.5109 10.38 14.5109Z" fill="#292D32"/>
<path d="M16.04 14.509C15.63 14.509 15.29 14.169 15.29 13.759V13.069H13.33C13.33 13.069 13.33 13.069 13.32 13.069C12.83 13.069 12.38 12.809 12.13 12.389C11.88 11.959 11.88 11.429 12.13 11.009C12.81 9.83897 13.6 8.50893 14.32 7.34894C14.64 6.83894 15.25 6.60898 15.82 6.76898C16.39 6.93898 16.79 7.45896 16.78 8.05896V11.579H17C17.41 11.579 17.75 11.919 17.75 12.329C17.75 12.739 17.41 13.079 17 13.079H16.79V13.769C16.79 14.179 16.46 14.509 16.04 14.509ZM15.29 8.63897C14.7 9.59897 14.09 10.629 13.54 11.569H15.29V8.63897Z" fill="#292D32"/>
</svg>
