<svg width="15" height="15" viewBox="0 0 15 15" fill="none" xmlns="http://www.w3.org/2000/svg">
<path d="M7.32246 14.6357C6.28862 14.6357 5.32944 14.4519 4.44492 14.0843C3.56041 13.7282 2.78503 13.2228 2.11877 12.568C1.464 11.9132 0.952821 11.1493 0.585231 10.2763C0.229128 9.39179 0.0510771 8.43262 0.0510771 7.39877C0.0510771 6.37641 0.234872 5.42872 0.602462 4.55569C0.970051 3.68267 1.48123 2.92451 2.136 2.28123C2.79077 1.62646 3.56041 1.12102 4.44492 0.764922C5.32944 0.397332 6.28287 0.213537 7.30523 0.213537C8.36205 0.213537 9.32698 0.403076 10.2 0.782152C11.073 1.16123 11.8254 1.6839 12.4572 2.35015C13.1005 3.00492 13.5945 3.76308 13.9391 4.62461C14.2952 5.47467 14.4732 6.38215 14.4732 7.34708C14.4732 8.08226 14.3526 8.72554 14.1114 9.27692C13.8816 9.81682 13.5485 10.2418 13.112 10.552C12.6755 10.8507 12.1586 11 11.5612 11C11.1936 11 10.8375 10.9311 10.4929 10.7932C10.1483 10.6554 9.85539 10.4486 9.61416 10.1729C9.38441 9.89723 9.24082 9.55836 9.18339 9.15631L9.51077 9.58708C9.34995 9.89723 9.13169 10.1557 8.856 10.3625C8.5918 10.5692 8.28739 10.7301 7.94277 10.8449C7.60964 10.9483 7.2478 11 6.85723 11C6.19098 11 5.5879 10.8392 5.048 10.5175C4.51959 10.1959 4.09456 9.75938 3.77292 9.208C3.46277 8.65662 3.30769 8.03056 3.30769 7.32985C3.30769 6.62913 3.46277 6.00308 3.77292 5.45169C4.08308 4.88882 4.5081 4.44082 5.048 4.10769C5.59939 3.77456 6.21395 3.608 6.89169 3.608C7.45457 3.608 7.96574 3.72287 8.42523 3.95261C8.88472 4.17087 9.22933 4.47528 9.45908 4.86585L9.32123 5.21046V3.78031H10.5963V8.39815C10.5963 8.82318 10.6825 9.13908 10.8548 9.34585C11.0386 9.54113 11.2855 9.63877 11.5957 9.63877C12.0437 9.63877 12.3883 9.45497 12.6295 9.08738C12.8708 8.70831 12.9914 8.1282 12.9914 7.34708C12.9914 6.53149 12.8535 5.77908 12.5778 5.08985C12.3136 4.38913 11.9346 3.78031 11.4406 3.26338C10.9467 2.73497 10.3493 2.32718 9.64862 2.04C8.95939 1.74133 8.184 1.592 7.32246 1.592C6.4839 1.592 5.70851 1.74133 4.99631 2.04C4.29559 2.32718 3.68103 2.72923 3.15262 3.24615C2.63569 3.76308 2.23364 4.3719 1.94646 5.07261C1.67077 5.77333 1.53292 6.54297 1.53292 7.38154C1.53292 8.20862 1.67077 8.97826 1.94646 9.69046C2.23364 10.4027 2.63569 11.023 3.15262 11.5514C3.66954 12.0913 4.27836 12.5106 4.97908 12.8092C5.69128 13.1079 6.47815 13.2572 7.33969 13.2572C7.8681 13.2572 8.37354 13.1941 8.856 13.0677C9.34995 12.9528 9.79221 12.7805 10.1828 12.5508L10.8203 13.7397C9.80944 14.337 8.64349 14.6357 7.32246 14.6357ZM6.96062 9.63877C7.38564 9.63877 7.76472 9.53538 8.09785 9.32862C8.43098 9.12185 8.68944 8.84615 8.87323 8.50154C9.06851 8.14544 9.16615 7.74338 9.16615 7.29538C9.16615 6.62913 8.95939 6.08349 8.54585 5.65846C8.13231 5.22195 7.6039 4.99795 6.96062 4.98646C6.54708 4.98646 6.168 5.08985 5.82339 5.29661C5.49026 5.4919 5.22605 5.76759 5.03077 6.12369C4.84698 6.46831 4.75508 6.86461 4.75508 7.31261C4.75508 7.74913 4.85272 8.14544 5.048 8.50154C5.24328 8.84615 5.50749 9.12185 5.84062 9.32862C6.17374 9.53538 6.54708 9.63877 6.96062 9.63877Z" fill="#8E8E8E"/>
</svg>
