<svg width="76" height="38" viewBox="0 0 76 38" fill="none" xmlns="http://www.w3.org/2000/svg">
<path fill-rule="evenodd" clip-rule="evenodd" d="M32.4138 5.46484H27.6403V37.8017H32.4138V25.3674L34.4156 37.8017H40.1131L36.3019 21.4793L39.8821 5.46484H34.4156L32.4138 17.8221V5.46484ZM19.9795 5.54173H14.9365L14.8595 37.8016H23.9831V32.6431H19.9795V5.54173ZM0 37.7243V5.50293H5.85142C9.79344 5.37975 11.0612 8.14634 11.2024 9.54504V18.0527C11.2332 20.0545 9.98335 20.9912 9.35458 21.2094C9.17493 21.2479 8.92342 21.3557 9.35458 21.4789C11.1408 21.8484 11.4334 24.0453 11.3564 25.0975V32.6428C11.5104 36.9235 7.95588 37.8141 6.15939 37.7243H0ZM5.26712 10.4693H4.69656V19.5544H5.26712C5.84496 19.5544 6.3134 19.0859 6.3134 18.5081V11.5156C6.3134 10.9377 5.84496 10.4693 5.26712 10.4693ZM5.26726 23.4811H4.6967V32.5662H5.26726C5.84511 32.5662 6.31354 32.0978 6.31354 31.52V24.5274C6.31354 23.9496 5.84511 23.4811 5.26726 23.4811Z" fill="black"/>
<path fill-rule="evenodd" clip-rule="evenodd" d="M61.0635 31.2878C61.1837 31.2755 61.2388 31.4521 61.1295 31.5037C56.6043 33.6387 48.3592 37.3943 46.8675 37.5438C46.8527 37.5453 46.8422 37.5489 46.8288 37.5554C46.4239 37.7538 44.1491 38.192 43.922 35.4283C43.6912 32.62 43.6141 14.4727 45.727 10.9135C45.7301 10.9083 45.7324 10.9034 45.7345 10.8977C45.7565 10.8385 45.785 10.7468 45.8223 10.6265C46.3233 9.01438 48.4158 2.28055 57.6266 0.281294C60.3975 -0.411413 67.1693 -0.257753 72.0964 5.89575C72.0996 5.89968 72.1025 5.90392 72.105 5.90827C72.1845 6.04368 72.2726 6.19008 72.3674 6.34739C73.837 8.78812 76.888 13.855 73.5641 21.2617C73.2178 22.3389 70.7187 26.607 67.1039 28.1111C67.0991 28.113 67.0946 28.1146 67.0896 28.1158C66.2186 28.332 63.3204 28.769 61.9767 28.961C58.8842 29.5512 52.2603 29.1688 50.5048 22.9171C50.2739 21.4157 48.7725 11.5992 58.9355 10.9063C60.7063 10.9063 64.248 10.9447 66.4808 14.4479C68.7039 17.9359 67.5304 22.4542 66.7223 22.9113C66.7149 22.9155 66.7092 22.9194 66.7027 22.925C66.3383 23.2429 64.7119 24.3185 64.1361 22.1607C64.1338 22.152 64.1325 22.1426 64.1325 22.1336V14.976C64.1325 14.9182 64.0857 14.8713 64.0279 14.8713H61.5424C61.4846 14.8713 61.4378 14.9182 61.4378 14.976V16.3451C61.4378 16.4028 61.3909 16.4497 61.3331 16.4497H61.3105C61.2706 16.4497 61.2346 16.4274 61.2162 16.392C60.2484 14.5292 56.7145 12.904 54.1235 16.9886C53.4442 18.3344 52.6779 21.7309 55.0389 24.5622C55.0444 24.5689 55.0504 24.5745 55.0575 24.5796C56.0277 25.2757 59.2576 27.2356 61.4061 23.7769C61.4254 23.7459 61.4612 23.7282 61.4893 23.7515C61.5411 23.7943 61.6144 23.8872 61.7121 24.0111C62.3229 24.7859 63.8863 26.7691 67.0967 25.2268C71.0233 23.3405 70.3689 17.5276 69.8299 15.8722C69.291 14.2169 67.0582 8.75045 59.8209 8.67345C54.0468 8.61203 51.1111 11.3022 50.357 12.6659C50.3527 12.6736 50.3482 12.6799 50.3422 12.6864C49.0448 14.0811 46.8123 18.1552 48.1951 23.379C49.8467 29.6184 56.0822 31.7988 61.0635 31.2878ZM58.8969 23.3023C60.2363 23.3023 61.3221 21.889 61.3221 20.1456C61.3221 18.4022 60.2363 16.9889 58.8969 16.9889C57.5574 16.9889 56.4716 18.4022 56.4716 20.1456C56.4716 21.889 57.5574 23.3023 58.8969 23.3023Z" fill="#EB1D25"/>
</svg>
