<svg width="32" height="32" viewBox="0 0 32 32" fill="none" xmlns="http://www.w3.org/2000/svg">
<path d="M28.12 9.30677C26.9867 8.05344 25.0933 7.42677 22.3467 7.42677H22.0267V7.37344C22.0267 5.13344 22.0267 2.36011 17.0133 2.36011H14.9867C9.97334 2.36011 9.97334 5.14677 9.97334 7.37344V7.44011H9.65334C6.89334 7.44011 5.01334 8.06677 3.88001 9.32011C2.56001 10.7868 2.60001 12.7601 2.73334 14.1068L2.74668 14.2001L2.88001 15.6001C2.89334 15.6134 2.92001 15.6401 2.94668 15.6534C3.38668 15.9468 3.84001 16.2401 4.32001 16.5068C4.50668 16.6268 4.70668 16.7334 4.90668 16.8401C7.18668 18.0934 9.69334 18.9334 12.24 19.3468C12.36 20.6001 12.9067 22.0668 15.8267 22.0668C18.7467 22.0668 19.32 20.6134 19.4133 19.3201C22.1333 18.8801 24.76 17.9334 27.1333 16.5468C27.2133 16.5068 27.2667 16.4668 27.3333 16.4268C27.9467 16.0801 28.52 15.7068 29.08 15.2934C29.1067 15.2801 29.1333 15.2534 29.1467 15.2268L29.2 14.7468L29.2667 14.1201C29.28 14.0401 29.28 13.9734 29.2933 13.8801C29.4 12.5334 29.3733 10.6934 28.12 9.30677ZM17.4533 18.4401C17.4533 19.8534 17.4533 20.0668 15.8133 20.0668C14.1733 20.0668 14.1733 19.8134 14.1733 18.4534V16.7734H17.4533V18.4401ZM11.88 7.42677V7.37344C11.88 5.10677 11.88 4.26677 14.9867 4.26677H17.0133C20.12 4.26677 20.12 5.12011 20.12 7.37344V7.44011H11.88V7.42677Z" fill="black"/>
<path d="M27.3333 16.4C27.2667 16.44 27.2 16.48 27.1333 16.52C24.76 17.9066 22.1333 18.84 19.4133 19.2933C19.3067 20.5733 18.7467 22.04 15.8267 22.04C12.9067 22.04 12.3467 20.5866 12.24 19.32C9.69334 18.92 7.18667 18.08 4.90667 16.8133C4.70667 16.7066 4.50667 16.6 4.32 16.48C3.84 16.2133 3.38667 15.92 2.94667 15.6266C2.92 15.6133 2.89334 15.5866 2.88 15.5733L3.69334 24.2533C3.97334 26.9066 5.06667 29.6399 10.9333 29.6399H21.0933C26.96 29.6399 28.0533 26.9066 28.3333 24.24L29.1733 15.2C29.16 15.2266 29.1333 15.2533 29.1067 15.2666C28.5333 15.68 27.9467 16.0666 27.3333 16.4Z" fill="black"/>
</svg>
