<svg width="15" height="15" viewBox="0 0 15 15" fill="none" xmlns="http://www.w3.org/2000/svg">
<g id="vuesax/linear/calendar">
<g id="vuesax/linear/calendar_2">
<g id="calendar">
<path id="Vector" d="M5.16663 1.66669V3.41669" stroke="black" stroke-miterlimit="10" stroke-linecap="round" stroke-linejoin="round"/>
<path id="Vector_2" d="M9.83337 1.66669V3.41669" stroke="black" stroke-miterlimit="10" stroke-linecap="round" stroke-linejoin="round"/>
<path id="Vector_3" d="M9.83333 2.54169C11.7758 2.64669 12.75 3.38752 12.75 6.12919V9.73419C12.75 12.1375 12.1667 13.3392 9.25 13.3392H5.75C2.83333 13.3392 2.25 12.1375 2.25 9.73419V6.12919C2.25 3.38752 3.22417 2.65252 5.16667 2.54169H9.83333Z" stroke="black" stroke-miterlimit="10" stroke-linecap="round" stroke-linejoin="round"/>
<path id="Vector_4" d="M12.6042 10.7667H2.39587" stroke="black" stroke-miterlimit="10" stroke-linecap="round" stroke-linejoin="round"/>
<path id="Vector_5" d="M7.49996 5.3125C6.78246 5.3125 6.17579 5.70333 6.17579 6.46167C6.17579 6.82333 6.34496 7.0975 6.60163 7.2725C6.24579 7.4825 6.04163 7.82083 6.04163 8.2175C6.04163 8.94083 6.59579 9.39 7.49996 9.39C8.39829 9.39 8.95829 8.94083 8.95829 8.2175C8.95829 7.82083 8.75413 7.47667 8.39246 7.2725C8.65496 7.09167 8.81829 6.82333 8.81829 6.46167C8.81829 5.70333 8.21746 5.3125 7.49996 5.3125ZM7.49996 6.96917C7.19663 6.96917 6.97496 6.78833 6.97496 6.5025C6.97496 6.21083 7.19663 6.04167 7.49996 6.04167C7.80329 6.04167 8.02496 6.21083 8.02496 6.5025C8.02496 6.78833 7.80329 6.96917 7.49996 6.96917ZM7.49996 8.66667C7.11496 8.66667 6.83496 8.47417 6.83496 8.12417C6.83496 7.77417 7.11496 7.5875 7.49996 7.5875C7.88496 7.5875 8.16496 7.78 8.16496 8.12417C8.16496 8.47417 7.88496 8.66667 7.49996 8.66667Z" fill="black"/>
</g>
</g>
</g>
</svg>
