<svg width="38" height="38" viewBox="0 0 38 38" fill="none" xmlns="http://www.w3.org/2000/svg">
<path opacity="0.4" d="M26.9165 14.25C26.9165 20.3775 21.5965 25.3333 15.0415 25.3333L13.569 27.1067L12.6982 28.1517C11.954 29.0384 10.529 28.8483 10.0382 27.7875L7.9165 23.1166C5.03484 21.09 3.1665 17.8758 3.1665 14.25C3.1665 8.1225 8.4865 3.16666 15.0415 3.16666C19.8232 3.16666 23.9557 5.81084 25.8082 9.61084C26.5207 11.02 26.9165 12.5875 26.9165 14.25Z" fill="#E4B200"/>
<path d="M34.833 20.3616C34.833 23.9875 32.9647 27.2017 30.083 29.2284L27.9613 33.8991C27.4705 34.96 26.0455 35.1659 25.3013 34.2634L22.958 31.445C19.1263 31.445 15.7063 29.7508 13.5688 27.1067L15.0413 25.3333C21.5963 25.3333 26.9163 20.3775 26.9163 14.25C26.9163 12.5875 26.5205 11.02 25.808 9.61085C30.9855 10.7983 34.833 15.1683 34.833 20.3616Z" fill="#E4B200"/>
<path d="M19.0002 15.4375H11.0835C10.4343 15.4375 9.896 14.8992 9.896 14.25C9.896 13.6008 10.4343 13.0625 11.0835 13.0625H19.0002C19.6493 13.0625 20.1877 13.6008 20.1877 14.25C20.1877 14.8992 19.6493 15.4375 19.0002 15.4375Z" fill="#E4B200"/>
</svg>
