<svg width="96" height="96" viewBox="0 0 96 96" fill="none" xmlns="http://www.w3.org/2000/svg">
<path opacity="0.4" d="M48 88C70.0914 88 88 70.0914 88 48C88 25.9086 70.0914 8 48 8C25.9086 8 8 25.9086 8 48C8 70.0914 25.9086 88 48 88Z" fill="black"/>
<path d="M52.2399 48L61.4399 38.8C62.5999 37.64 62.5999 35.72 61.4399 34.56C60.2799 33.4 58.3599 33.4 57.1999 34.56L47.9999 43.76L38.7999 34.56C37.6399 33.4 35.7199 33.4 34.5599 34.56C33.3999 35.72 33.3999 37.64 34.5599 38.8L43.7599 48L34.5599 57.2C33.3999 58.36 33.3999 60.28 34.5599 61.44C35.1599 62.04 35.9199 62.32 36.6799 62.32C37.4399 62.32 38.1999 62.04 38.7999 61.44L47.9999 52.24L57.1999 61.44C57.7999 62.04 58.5599 62.32 59.3199 62.32C60.0799 62.32 60.8399 62.04 61.4399 61.44C62.5999 60.28 62.5999 58.36 61.4399 57.2L52.2399 48Z" fill="black"/>
</svg>
