<svg width="172" height="172" viewBox="0 0 172 172" fill="none" xmlns="http://www.w3.org/2000/svg">
<path opacity="0.4" d="M155.947 114.093L110.08 31.5333C103.917 20.4249 95.3884 14.3333 86.0001 14.3333C76.6117 14.3333 68.0834 20.4249 61.9201 31.5333L16.0534 114.093C10.2484 124.628 9.60342 134.733 14.2618 142.688C18.9201 150.643 28.0934 155.015 40.1334 155.015H131.867C143.907 155.015 153.08 150.643 157.738 142.688C162.397 134.733 161.752 124.557 155.947 114.093Z" fill="#F04950"/>
<path d="M86 105.708C83.0617 105.708 80.625 103.272 80.625 100.333V64.5C80.625 61.5617 83.0617 59.125 86 59.125C88.9383 59.125 91.375 61.5617 91.375 64.5V100.333C91.375 103.272 88.9383 105.708 86 105.708Z" fill="#F04950"/>
<path d="M86.0002 129C85.5702 129 85.0685 128.928 84.5668 128.857C84.1368 128.785 83.7068 128.642 83.2768 128.427C82.8468 128.283 82.4168 128.068 81.9868 127.782C81.6285 127.495 81.2702 127.208 80.9118 126.922C79.6218 125.56 78.8335 123.697 78.8335 121.833C78.8335 119.97 79.6218 118.107 80.9118 116.745C81.2702 116.458 81.6285 116.172 81.9868 115.885C82.4168 115.598 82.8468 115.383 83.2768 115.24C83.7068 115.025 84.1368 114.882 84.5668 114.81C85.4985 114.595 86.5018 114.595 87.3618 114.81C87.8635 114.882 88.2935 115.025 88.7235 115.24C89.1535 115.383 89.5835 115.598 90.0135 115.885C90.3718 116.172 90.7302 116.458 91.0885 116.745C92.3785 118.107 93.1668 119.97 93.1668 121.833C93.1668 123.697 92.3785 125.56 91.0885 126.922C90.7302 127.208 90.3718 127.495 90.0135 127.782C89.5835 128.068 89.1535 128.283 88.7235 128.427C88.2935 128.642 87.8635 128.785 87.3618 128.857C86.9318 128.928 86.4302 129 86.0002 129Z" fill="#F04950"/>
</svg>
