<svg width="44" height="45" viewBox="0 0 44 45" fill="none" xmlns="http://www.w3.org/2000/svg">
<path opacity="0.4" d="M37.5833 19.1817H32.2849C27.9399 19.1817 24.4016 15.6433 24.4016 11.2983V6.00001C24.4016 4.99167 23.5766 4.16667 22.5683 4.16667H14.7949C9.14825 4.16667 4.58325 7.83334 4.58325 14.3783V30.6217C4.58325 37.1667 9.14825 40.8333 14.7949 40.8333H29.2049C34.8516 40.8333 39.4166 37.1667 39.4166 30.6217V21.015C39.4166 20.0067 38.5916 19.1817 37.5833 19.1817Z" fill="#F04950"/>
<path d="M28.9667 4.55166C28.215 3.8 26.9133 4.31333 26.9133 5.35833V11.7567C26.9133 14.4333 29.1867 16.6517 31.955 16.6517C33.6967 16.67 36.1167 16.67 38.1883 16.67C39.2333 16.67 39.7833 15.4417 39.05 14.7083C36.41 12.05 31.68 7.265 28.9667 4.55166Z" fill="#F04950"/>
<path d="M21.1383 23.3617L17.4716 19.695C17.4533 19.6767 17.435 19.6767 17.435 19.6583C17.325 19.5483 17.1783 19.4567 17.0316 19.3833C17.0133 19.3833 17.0133 19.3833 16.995 19.3833C16.8483 19.3283 16.7016 19.31 16.555 19.2917C16.5 19.2917 16.4633 19.2917 16.4083 19.2917C16.2983 19.2917 16.17 19.3283 16.06 19.365C16.005 19.3833 15.9683 19.4017 15.9316 19.42C15.785 19.4933 15.6383 19.5667 15.5283 19.695L11.8616 23.3617C11.33 23.8933 11.33 24.7733 11.8616 25.305C12.3933 25.8367 13.2733 25.8367 13.805 25.305L15.125 23.985V31.6667C15.125 32.4183 15.7483 33.0417 16.5 33.0417C17.2516 33.0417 17.875 32.4183 17.875 31.6667V23.985L19.195 25.305C19.47 25.58 19.8183 25.7083 20.1666 25.7083C20.515 25.7083 20.8633 25.58 21.1383 25.305C21.67 24.7733 21.67 23.8933 21.1383 23.3617Z" fill="#F04950"/>
</svg>
