<svg width="14" height="14" viewBox="0 0 14 14" fill="none" xmlns="http://www.w3.org/2000/svg">
<path d="M8.61785 12.9111H5.4568C2.59605 12.9111 1.37378 11.6888 1.37378 8.82805V5.667C1.37378 2.80626 2.59605 1.58398 5.4568 1.58398H6.51048C6.72649 1.58398 6.90561 1.76311 6.90561 1.97912C6.90561 2.19512 6.72649 2.37425 6.51048 2.37425H5.4568C3.02806 2.37425 2.16404 3.23827 2.16404 5.667V8.82805C2.16404 11.2568 3.02806 12.1208 5.4568 12.1208H8.61785C11.0466 12.1208 11.9106 11.2568 11.9106 8.82805V7.77437C11.9106 7.55836 12.0897 7.37924 12.3057 7.37924C12.5217 7.37924 12.7009 7.55836 12.7009 7.77437V8.82805C12.7009 11.6888 11.4786 12.9111 8.61785 12.9111Z" fill="white"/>
<path d="M5.19333 10.245C4.87196 10.245 4.57693 10.1291 4.36092 9.91834C4.10277 9.66019 3.99213 9.28613 4.05008 8.891L4.27663 7.30521C4.31877 6.99964 4.51897 6.60451 4.73498 6.3885L8.88649 2.23699C9.9349 1.18858 10.9991 1.18858 12.0475 2.23699C12.6218 2.81125 12.8799 3.39604 12.8273 3.98084C12.7798 4.455 12.527 4.91862 12.0475 5.39277L7.89602 9.54428C7.68002 9.76029 7.28489 9.96049 6.97932 10.0026L5.39353 10.2292C5.32504 10.245 5.25655 10.245 5.19333 10.245ZM9.44494 2.79545L5.29343 6.94695C5.19333 7.04705 5.07742 7.27886 5.05635 7.41584L4.82981 9.00163C4.80874 9.15442 4.84035 9.28086 4.91937 9.35989C4.9984 9.43891 5.12484 9.47052 5.27762 9.44945L6.86342 9.22291C7.00039 9.20183 7.23747 9.08593 7.3323 8.98583L11.4838 4.83432C11.8263 4.49187 12.0054 4.18631 12.0317 3.90181C12.0633 3.55937 11.8842 3.19584 11.4838 2.79018C10.6409 1.94723 10.0613 2.18431 9.44494 2.79545Z" fill="white"/>
<path d="M11.173 6.10431C11.1361 6.10431 11.0993 6.09904 11.0677 6.0885C9.68206 5.69864 8.58096 4.59754 8.1911 3.21195C8.13315 3.00121 8.25432 2.78521 8.46506 2.72199C8.6758 2.66403 8.8918 2.78521 8.94975 2.99594C9.26586 4.11811 10.1562 5.00848 11.2784 5.32458C11.4891 5.38253 11.6103 5.60381 11.5523 5.81454C11.5049 5.99367 11.3469 6.10431 11.173 6.10431Z" fill="white"/>
</svg>
