<svg width="30" height="30" viewBox="0 0 30 30" fill="none" xmlns="http://www.w3.org/2000/svg">
<rect x="1.33945" y="1.54978" width="27.3957" height="27.3957" rx="13.6979" fill="black"/>
<rect x="1.33945" y="1.54978" width="27.3957" height="27.3957" rx="13.6979" stroke="white" stroke-width="2.10736"/>
<path d="M16.6178 20.9111H13.4568C10.5961 20.9111 9.37378 19.6888 9.37378 16.8281V13.667C9.37378 10.8063 10.5961 9.58398 13.4568 9.58398H14.5105C14.7265 9.58398 14.9056 9.76311 14.9056 9.97912C14.9056 10.1951 14.7265 10.3742 14.5105 10.3742H13.4568C11.0281 10.3742 10.164 11.2383 10.164 13.667V16.8281C10.164 19.2568 11.0281 20.1208 13.4568 20.1208H16.6178C19.0466 20.1208 19.9106 19.2568 19.9106 16.8281V15.7744C19.9106 15.5584 20.0897 15.3792 20.3057 15.3792C20.5217 15.3792 20.7009 15.5584 20.7009 15.7744V16.8281C20.7009 19.6888 19.4786 20.9111 16.6178 20.9111Z" fill="white"/>
<path d="M13.1933 18.245C12.872 18.245 12.5769 18.1291 12.3609 17.9183C12.1028 17.6602 11.9921 17.2861 12.0501 16.891L12.2766 15.3052C12.3188 14.9996 12.519 14.6045 12.735 14.3885L16.8865 10.237C17.9349 9.18858 18.9991 9.18858 20.0475 10.237C20.6218 10.8113 20.8799 11.396 20.8273 11.9808C20.7798 12.455 20.527 12.9186 20.0475 13.3928L15.896 17.5443C15.68 17.7603 15.2849 17.9605 14.9793 18.0026L13.3935 18.2292C13.325 18.245 13.2566 18.245 13.1933 18.245ZM17.4449 10.7954L13.2934 14.947C13.1933 15.0471 13.0774 15.2789 13.0564 15.4158L12.8298 17.0016C12.8087 17.1544 12.8403 17.2809 12.9194 17.3599C12.9984 17.4389 13.1248 17.4705 13.2776 17.4494L14.8634 17.2229C15.0004 17.2018 15.2375 17.0859 15.3323 16.9858L19.4838 12.8343C19.8263 12.4919 20.0054 12.1863 20.0317 11.9018C20.0633 11.5594 19.8842 11.1958 19.4838 10.7902C18.6409 9.94723 18.0613 10.1843 17.4449 10.7954Z" fill="white"/>
<path d="M19.173 14.1043C19.1361 14.1043 19.0993 14.099 19.0677 14.0885C17.6821 13.6986 16.581 12.5975 16.1911 11.2119C16.1331 11.0012 16.2543 10.7852 16.4651 10.722C16.6758 10.664 16.8918 10.7852 16.9498 10.9959C17.2659 12.1181 18.1562 13.0085 19.2784 13.3246C19.4891 13.3825 19.6103 13.6038 19.5523 13.8145C19.5049 13.9937 19.3469 14.1043 19.173 14.1043Z" fill="white"/>
</svg>
