<svg width="38" height="38" viewBox="0 0 38 38" fill="none" xmlns="http://www.w3.org/2000/svg">
<path d="M9.50016 20.5833C5.13016 20.5833 1.5835 24.1142 1.5835 28.5C1.5835 32.8858 5.13016 36.4167 9.50016 36.4167C13.8702 36.4167 17.4168 32.87 17.4168 28.5C17.4168 24.13 13.886 20.5833 9.50016 20.5833ZM6.27015 25.27H9.50016C10.1018 25.27 10.5768 25.7608 10.5768 26.3467C10.5768 26.9325 10.086 27.4234 9.50016 27.4234H6.27015C5.66848 27.4234 5.19349 26.9325 5.19349 26.3467C5.19349 25.7608 5.66848 25.27 6.27015 25.27ZM12.7302 31.73H6.25435C5.65268 31.73 5.17765 31.2392 5.17765 30.6533C5.17765 30.0675 5.66852 29.5767 6.25435 29.5767H12.7302C13.3318 29.5767 13.8068 30.0675 13.8068 30.6533C13.8068 31.2392 13.3318 31.73 12.7302 31.73Z" fill="#0075FF"/>
<path opacity="0.4" d="M26.9165 4.75H11.0832C6.33317 4.75 3.1665 7.125 3.1665 12.6667V17.6383C3.1665 18.7942 4.35403 19.5225 5.41486 19.0633C7.15653 18.3033 9.13565 18.0183 11.2098 18.3508C15.3581 19.0317 18.7465 22.3092 19.5857 26.4258C19.8232 27.6292 19.8548 28.8008 19.6965 29.925C19.5698 30.8592 20.3298 31.6825 21.264 31.6825H26.9165C31.6665 31.6825 34.8332 29.3075 34.8332 23.7658V12.6825C34.8332 7.12499 31.6665 4.75 26.9165 4.75Z" fill="#0075FF"/>
<path d="M18.9996 18.7942C17.6696 18.7942 16.3237 18.3825 15.2946 17.5433L10.3387 13.585C9.83207 13.1733 9.73707 12.4292 10.1487 11.9225C10.5604 11.4158 11.3046 11.3208 11.8112 11.7325L16.7671 15.6908C17.9704 16.6567 20.0129 16.6567 21.2162 15.6908L26.1721 11.7325C26.6787 11.3208 27.4387 11.4 27.8345 11.9225C28.2462 12.4292 28.1671 13.1892 27.6446 13.585L22.6887 17.5433C21.6754 18.3825 20.3296 18.7942 18.9996 18.7942Z" fill="#0075FF"/>
</svg>
