<svg width="22" height="22" viewBox="0 0 22 22" fill="none" xmlns="http://www.w3.org/2000/svg">
<g id="vuesax/bulk/message-question">
<g id="message-question">
<path id="Vector" opacity="0.4" d="M15.5834 16.8932H11.9167L7.83753 19.6066C7.23253 20.0099 6.41671 19.5791 6.41671 18.8457V16.8932C3.66671 16.8932 1.83337 15.0599 1.83337 12.3099V6.8099C1.83337 4.0599 3.66671 2.22656 6.41671 2.22656H15.5834C18.3334 2.22656 20.1667 4.0599 20.1667 6.8099V12.3099C20.1667 15.0599 18.3334 16.8932 15.5834 16.8932Z" fill="#292D32"/>
<g id="Group">
<path id="Vector_2" d="M11 11.1016C10.6242 11.1016 10.3125 10.7899 10.3125 10.4141V10.2216C10.3125 9.15826 11.0917 8.63575 11.385 8.43409C11.7242 8.20492 11.8342 8.04909 11.8342 7.81076C11.8342 7.35243 11.4584 6.97656 11 6.97656C10.5417 6.97656 10.1659 7.35243 10.1659 7.81076C10.1659 8.18659 9.85423 8.49826 9.47839 8.49826C9.10256 8.49826 8.79089 8.18659 8.79089 7.81076C8.79089 6.59159 9.78087 5.60156 11 5.60156C12.2192 5.60156 13.2092 6.59159 13.2092 7.81076C13.2092 8.85576 12.4392 9.37824 12.155 9.57074C11.7975 9.80908 11.6875 9.96493 11.6875 10.2216V10.4141C11.6875 10.7991 11.3759 11.1016 11 11.1016Z" fill="#292D32"/>
</g>
<g id="Group_2">
<path id="Vector_3" d="M11 13.3828C10.615 13.3828 10.3125 13.0711 10.3125 12.6953C10.3125 12.3195 10.6242 12.0078 11 12.0078C11.3758 12.0078 11.6875 12.3195 11.6875 12.6953C11.6875 13.0711 11.385 13.3828 11 13.3828Z" fill="#292D32"/>
</g>
</g>
</g>
</svg>
