<svg width="19" height="18" viewBox="0 0 19 18" fill="none" xmlns="http://www.w3.org/2000/svg">
<rect x="0.5" width="18" height="18" rx="9" fill="#EB1D25"/>
<path fill-rule="evenodd" clip-rule="evenodd" d="M10.0399 12.1734C10.0428 12.173 10.0444 12.1769 10.0417 12.1782C8.90802 12.7163 6.57533 13.7853 6.18436 13.8179C6.18399 13.818 6.18377 13.818 6.18345 13.8182C6.09211 13.8683 5.48493 13.9965 5.42512 13.2689C5.36523 12.5401 5.34526 7.82841 5.89425 6.90949C5.89433 6.90936 5.89438 6.90924 5.89443 6.9091C5.90022 6.89386 5.90784 6.86934 5.91797 6.83676C6.04789 6.41867 6.59055 4.67231 8.9793 4.15382C9.6981 3.97412 11.4551 4.01405 12.733 5.61129C12.7331 5.61138 12.7332 5.61149 12.7332 5.6116C12.7541 5.64714 12.7773 5.68562 12.8022 5.72701C13.1833 6.35999 13.9746 7.67405 13.1125 9.5949C13.0227 9.87443 12.3738 10.9825 11.4355 11.3719C11.4353 11.372 11.4352 11.372 11.4351 11.372C11.2113 11.428 10.4568 11.5417 10.1075 11.5916C9.30544 11.7447 7.58758 11.6455 7.13233 10.0242C7.07243 9.63484 6.68307 7.08902 9.31875 6.90931C9.77799 6.90931 10.6965 6.91929 11.2755 7.8278C11.8544 8.73593 11.5454 9.91341 11.3357 10.0241C11.3355 10.0242 11.3354 10.0243 11.3352 10.0244C11.2449 10.1045 10.8163 10.393 10.6666 9.82486C10.6666 9.82465 10.6665 9.82441 10.6665 9.82419V7.9402C10.6665 7.93878 10.6654 7.93762 10.664 7.93762H9.97027C9.96884 7.93762 9.96768 7.93878 9.96768 7.9402V8.34436C9.96768 8.34579 9.96653 8.34695 9.9651 8.34695H9.91938C9.91839 8.34695 9.9175 8.34641 9.91707 8.34552C9.67635 7.85689 8.74902 7.41751 8.07079 8.48672C7.89443 8.83611 7.69545 9.7185 8.31019 10.4532C8.31033 10.4534 8.31047 10.4535 8.31065 10.4537C8.56043 10.6335 9.408 11.1516 9.9669 10.2351C9.96737 10.2344 9.96823 10.2338 9.96912 10.234C9.98213 10.236 10.0048 10.2647 10.0388 10.3079C10.1972 10.5089 10.6027 11.0232 11.4353 10.6232C12.4536 10.134 12.2839 8.62649 12.1441 8.19719C12.0043 7.7679 11.4253 6.35022 9.54837 6.33025C8.04722 6.31428 7.28581 7.01543 7.09255 7.36828C7.09244 7.36847 7.09233 7.36862 7.09218 7.36878C6.75603 7.72841 6.17398 8.78652 6.53331 10.144C6.98057 11.8337 8.72405 12.3755 10.0399 12.1734ZM9.30873 10.1241C9.65611 10.1241 9.9377 9.75759 9.9377 9.30545C9.9377 8.85332 9.65611 8.48679 9.30873 8.48679C8.96136 8.48679 8.67977 8.85332 8.67977 9.30545C8.67977 9.75759 8.96136 10.1241 9.30873 10.1241Z" fill="white"/>
</svg>
