<svg width="14" height="15" viewBox="0 0 14 15" fill="none" xmlns="http://www.w3.org/2000/svg">
<path d="M6.99984 13.3332C10.2215 13.3332 12.8332 10.7215 12.8332 7.49984C12.8332 4.27818 10.2215 1.6665 6.99984 1.6665C3.77818 1.6665 1.1665 4.27818 1.1665 7.49984C1.1665 10.7215 3.77818 13.3332 6.99984 13.3332Z" stroke="#656565" stroke-linecap="round" stroke-linejoin="round"/>
<path d="M4.66676 2.25H5.2501C4.1126 5.65667 4.1126 9.34333 5.2501 12.75H4.66676" stroke="#656565" stroke-linecap="round" stroke-linejoin="round"/>
<path d="M8.75 2.25C9.8875 5.65667 9.8875 9.34333 8.75 12.75" stroke="#656565" stroke-linecap="round" stroke-linejoin="round"/>
<path d="M1.75 9.83333V9.25C5.15667 10.3875 8.84333 10.3875 12.25 9.25V9.83333" stroke="#656565" stroke-linecap="round" stroke-linejoin="round"/>
<path d="M1.75 5.7501C5.15667 4.6126 8.84333 4.6126 12.25 5.7501" stroke="#656565" stroke-linecap="round" stroke-linejoin="round"/>
</svg>
