<svg width="20" height="20" viewBox="0 0 20 20" fill="none" xmlns="http://www.w3.org/2000/svg">
<path opacity="0.4" d="M17.3581 6.67485L11.8998 2.30819C10.8331 1.45819 9.16647 1.44985 8.10814 2.29985L2.64981 6.67485C1.86647 7.29985 1.39147 8.54985 1.55814 9.53319L2.60814 15.8165C2.84981 17.2249 4.15814 18.3332 5.58314 18.3332H14.4165C15.8248 18.3332 17.1581 17.1999 17.3998 15.8082L18.4498 9.52485C18.5998 8.54985 18.1248 7.29985 17.3581 6.67485Z" fill="black"/>
<path d="M10 15.625C9.65833 15.625 9.375 15.3417 9.375 15V12.5C9.375 12.1583 9.65833 11.875 10 11.875C10.3417 11.875 10.625 12.1583 10.625 12.5V15C10.625 15.3417 10.3417 15.625 10 15.625Z" fill="black"/>
</svg>
