<svg width="120" height="120" viewBox="0 0 120 120" fill="none" xmlns="http://www.w3.org/2000/svg">
<path opacity="0.4" d="M110 37.15V67.15C110 74.65 107.5 80.9 103.1 85.3C98.75 89.65 92.5 92.15 85 92.15V102.8C85 106.8 80.5501 109.2 77.2501 107L55 92.15H44.4C44.8 90.65 45 89.1 45 87.5C45 82.4 43.05 77.7001 39.85 74.1501C36.25 70.0501 30.9 67.5 25 67.5C19.4 67.5 14.3 69.8001 10.65 73.5501C10.2 71.5501 10 69.4 10 67.15V37.15C10 22.15 20 12.15 35 12.15H85C100 12.15 110 22.15 110 37.15Z" fill="#EB1D25"/>
<path d="M77.5 56.25H42.5C40.45 56.25 38.75 54.55 38.75 52.5C38.75 50.45 40.45 48.75 42.5 48.75H77.5C79.55 48.75 81.25 50.45 81.25 52.5C81.25 54.55 79.55 56.25 77.5 56.25Z" fill="#EB1D25"/>
<path d="M26.0499 67.5502C20.5999 67.2002 15 69.2 10.85 73.35C3.05 81.15 3.05 93.8002 10.85 101.65C13.5 104.3 16.75 106.05 20.2 106.9C22.1 107.4 24.0999 107.55 26.0999 107.45C30.8499 107.25 35.4999 105.35 39.1499 101.7C44.2999 96.5503 46.05 89.3001 44.4 82.7501C43.6 79.3001 41.7999 76.0501 39.1499 73.4001C35.5499 69.7501 30.8499 67.8002 26.0499 67.5502ZM36.1999 87.4C36.1999 88.45 35.7999 89.3502 35.0999 90.0502C34.3999 90.7502 33.4999 91.15 32.4499 91.15H28.7499V95.0502C28.7499 96.1002 28.3499 97 27.6499 97.7C26.9499 98.4 26.0499 98.8002 24.9999 98.8002C22.9499 98.8002 21.2499 97.1002 21.2499 95.0502V91.15H17.4999C15.4499 91.15 13.7499 89.45 13.7499 87.4C13.7499 85.35 15.4499 83.65 17.4999 83.65H21.2499V80.1002C21.2499 78.0502 22.9499 76.3502 24.9999 76.3502C27.0499 76.3502 28.7499 78.0502 28.7499 80.1002V83.65H32.4499C34.5499 83.65 36.1999 85.35 36.1999 87.4Z" fill="#EB1D25"/>
</svg>
