<svg width="32" height="32" viewBox="0 0 32 32" fill="none" xmlns="http://www.w3.org/2000/svg">
<g filter="url(#filter0_d_2995_782)">
<path opacity="0.4" d="M20 8.98987V20.3499C20 21.7999 18.96 22.4099 17.69 21.7099L13.76 19.5199C13.34 19.2899 12.66 19.2899 12.24 19.5199L8.31 21.7099C7.04 22.4099 6 21.7999 6 20.3499V8.98987C6 7.27987 7.39999 5.87988 9.10999 5.87988H16.89C18.6 5.87988 20 7.27987 20 8.98987Z" fill="#1A53E7"/>
<path d="M26 5.10999V16.47C26 17.92 24.96 18.53 23.69 17.83L20 15.77V8.98999C20 7.27999 18.6 5.88 16.89 5.88H12V5.10999C12 3.39999 13.4 2 15.11 2H22.89C24.6 2 26 3.39999 26 5.10999Z" fill="#1A53E7"/>
<path d="M15 11.25H13.75V10C13.75 9.59 13.41 9.25 13 9.25C12.59 9.25 12.25 9.59 12.25 10V11.25H11C10.59 11.25 10.25 11.59 10.25 12C10.25 12.41 10.59 12.75 11 12.75H12.25V14C12.25 14.41 12.59 14.75 13 14.75C13.41 14.75 13.75 14.41 13.75 14V12.75H15C15.41 12.75 15.75 12.41 15.75 12C15.75 11.59 15.41 11.25 15 11.25Z" fill="#1A53E7"/>
</g>
<defs>
<filter id="filter0_d_2995_782" x="0" y="0" width="32" height="32" filterUnits="userSpaceOnUse" color-interpolation-filters="sRGB">
<feFlood flood-opacity="0" result="BackgroundImageFix"/>
<feColorMatrix in="SourceAlpha" type="matrix" values="0 0 0 0 0 0 0 0 0 0 0 0 0 0 0 0 0 0 127 0" result="hardAlpha"/>
<feOffset dy="4"/>
<feGaussianBlur stdDeviation="2"/>
<feComposite in2="hardAlpha" operator="out"/>
<feColorMatrix type="matrix" values="0 0 0 0 0 0 0 0 0 0 0 0 0 0 0 0 0 0 0.25 0"/>
<feBlend mode="normal" in2="BackgroundImageFix" result="effect1_dropShadow_2995_782"/>
<feBlend mode="normal" in="SourceGraphic" in2="effect1_dropShadow_2995_782" result="shape"/>
</filter>
</defs>
</svg>
