<svg width="14" height="14" viewBox="0 0 14 14" fill="none" xmlns="http://www.w3.org/2000/svg">
<path d="M5.25016 5.83333C5.89449 5.83333 6.41683 5.311 6.41683 4.66667C6.41683 4.02233 5.89449 3.5 5.25016 3.5C4.60583 3.5 4.0835 4.02233 4.0835 4.66667C4.0835 5.311 4.60583 5.83333 5.25016 5.83333Z" stroke="#797979" stroke-linecap="round" stroke-linejoin="round"/>
<path d="M7.58317 1.1665H5.24984C2.33317 1.1665 1.1665 2.33317 1.1665 5.24984V8.74984C1.1665 11.6665 2.33317 12.8332 5.24984 12.8332H8.74984C11.6665 12.8332 12.8332 11.6665 12.8332 8.74984V5.83317" stroke="#797979" stroke-linecap="round" stroke-linejoin="round"/>
<path d="M9.1875 2.9165H12.3958" stroke="#797979" stroke-linecap="round"/>
<path d="M10.7915 4.52083V1.3125" stroke="#797979" stroke-linecap="round"/>
<path d="M1.55762 11.0542L4.43345 9.12333C4.89428 8.81416 5.55928 8.84916 5.97345 9.20499L6.16595 9.37416C6.62095 9.76499 7.35595 9.76499 7.81095 9.37416L10.2376 7.29166C10.6926 6.90083 11.4276 6.90083 11.8826 7.29166L12.8335 8.10833" stroke="#797979" stroke-linecap="round" stroke-linejoin="round"/>
</svg>
