<svg width="14" height="14" viewBox="0 0 14 14" fill="none" xmlns="http://www.w3.org/2000/svg">
<path d="M4.6665 1.1665V2.9165" stroke="#797979" stroke-miterlimit="10" stroke-linecap="round" stroke-linejoin="round"/>
<path d="M9.3335 1.1665V2.9165" stroke="#797979" stroke-miterlimit="10" stroke-linecap="round" stroke-linejoin="round"/>
<path d="M12.25 4.95817V7.95067C11.7308 7.53651 11.0717 7.2915 10.3542 7.2915C9.63667 7.2915 8.96583 7.54232 8.44083 7.96816C7.735 8.52232 7.29167 9.3915 7.29167 10.354C7.29167 10.9257 7.45501 11.474 7.73501 11.929C7.95084 12.2848 8.23083 12.594 8.56333 12.8332H4.66667C2.625 12.8332 1.75 11.6665 1.75 9.9165V4.95817C1.75 3.20817 2.625 2.0415 4.66667 2.0415H9.33333C11.375 2.0415 12.25 3.20817 12.25 4.95817Z" stroke="#797979" stroke-miterlimit="10" stroke-linecap="round" stroke-linejoin="round"/>
<path d="M4.0835 6.4165H7.5835" stroke="#797979" stroke-miterlimit="10" stroke-linecap="round" stroke-linejoin="round"/>
<path d="M4.0835 9.3335H5.61183" stroke="#797979" stroke-miterlimit="10" stroke-linecap="round" stroke-linejoin="round"/>
<path d="M13.4165 10.354C13.4165 10.9257 13.2532 11.474 12.9732 11.929C12.8098 12.209 12.6057 12.454 12.3665 12.6523C11.8298 13.1307 11.1298 13.4165 10.354 13.4165C9.68317 13.4165 9.06483 13.2007 8.56317 12.8332C8.23067 12.594 7.95068 12.2848 7.73484 11.929C7.45484 11.474 7.2915 10.9257 7.2915 10.354C7.2915 9.3915 7.73484 8.52232 8.44067 7.96815C8.96567 7.54232 9.6365 7.2915 10.354 7.2915C11.0715 7.2915 11.7307 7.53651 12.2498 7.95067C12.9615 8.51067 13.4165 9.37984 13.4165 10.354Z" stroke="#797979" stroke-miterlimit="10" stroke-linecap="round" stroke-linejoin="round"/>
<path d="M10.3543 11.8127C10.3543 11.0077 11.0077 10.3543 11.8127 10.3543C11.0077 10.3543 10.3543 9.701 10.3543 8.896C10.3543 9.701 9.701 10.3543 8.896 10.3543C9.701 10.3543 10.3543 11.0077 10.3543 11.8127Z" stroke="#797979" stroke-linecap="round" stroke-linejoin="round"/>
</svg>
