<svg width="18" height="18" viewBox="0 0 18 18" fill="none" xmlns="http://www.w3.org/2000/svg">
<rect width="18" height="18" rx="9" fill="#EB1D25"/>
<path fill-rule="evenodd" clip-rule="evenodd" d="M9.53989 12.1734C9.54284 12.173 9.54443 12.1769 9.54174 12.1782C8.40802 12.7163 6.07533 13.7853 5.68436 13.8179C5.68399 13.818 5.68377 13.818 5.68345 13.8182C5.59211 13.8683 4.98493 13.9965 4.92512 13.2689C4.86523 12.5401 4.84526 7.82841 5.39425 6.90949C5.39433 6.90936 5.39438 6.90924 5.39443 6.9091C5.40022 6.89386 5.40784 6.86934 5.41797 6.83676C5.54789 6.41867 6.09055 4.67231 8.4793 4.15382C9.1981 3.97412 10.9551 4.01405 12.233 5.61129C12.2331 5.61138 12.2332 5.61149 12.2332 5.6116C12.2541 5.64714 12.2773 5.68562 12.3022 5.72701C12.6833 6.35999 13.4746 7.67405 12.6125 9.5949C12.5227 9.87443 11.8738 10.9825 10.9355 11.3719C10.9353 11.372 10.9352 11.372 10.9351 11.372C10.7113 11.428 9.95679 11.5417 9.60745 11.5916C8.80544 11.7447 7.08758 11.6455 6.63233 10.0242C6.57243 9.63484 6.18307 7.08902 8.81875 6.90931C9.27799 6.90931 10.1965 6.91929 10.7755 7.8278C11.3544 8.73593 11.0454 9.91341 10.8357 10.0241C10.8355 10.0242 10.8354 10.0243 10.8352 10.0244C10.7449 10.1045 10.3163 10.393 10.1666 9.82486C10.1666 9.82465 10.1665 9.82441 10.1665 9.82419V7.9402C10.1665 7.93878 10.1654 7.93762 10.164 7.93762H9.47027C9.46884 7.93762 9.46768 7.93878 9.46768 7.9402V8.34436C9.46768 8.34579 9.46653 8.34695 9.4651 8.34695H9.41938C9.41839 8.34695 9.4175 8.34641 9.41707 8.34552C9.17635 7.85689 8.24902 7.41751 7.57079 8.48672C7.39443 8.83611 7.19545 9.7185 7.81019 10.4532C7.81033 10.4534 7.81047 10.4535 7.81065 10.4537C8.06043 10.6335 8.908 11.1516 9.4669 10.2351C9.46737 10.2344 9.46823 10.2338 9.46912 10.234C9.48213 10.236 9.50477 10.2647 9.53882 10.3079C9.69723 10.5089 10.1027 11.0232 10.9353 10.6232C11.9536 10.134 11.7839 8.62649 11.6441 8.19719C11.5043 7.7679 10.9253 6.35022 9.04837 6.33025C7.54722 6.31428 6.78581 7.01543 6.59255 7.36828C6.59244 7.36847 6.59233 7.36862 6.59218 7.36878C6.25603 7.72841 5.67398 8.78652 6.03331 10.144C6.48057 11.8337 8.22405 12.3755 9.53989 12.1734ZM8.80873 10.1241C9.15611 10.1241 9.4377 9.75759 9.4377 9.30545C9.4377 8.85332 9.15611 8.48679 8.80873 8.48679C8.46136 8.48679 8.17977 8.85332 8.17977 9.30545C8.17977 9.75759 8.46136 10.1241 8.80873 10.1241Z" fill="white"/>
</svg>
