<svg width="33" height="32" viewBox="0 0 33 32" fill="none" xmlns="http://www.w3.org/2000/svg">
<path opacity="0.4" d="M16.5003 29.3333C23.8641 29.3333 29.8337 23.3638 29.8337 16C29.8337 8.63619 23.8641 2.66666 16.5003 2.66666C9.13653 2.66666 3.16699 8.63619 3.16699 16C3.16699 23.3638 9.13653 29.3333 16.5003 29.3333Z" fill="#292D32"/>
<path d="M16.767 23.1733C15.8337 23.1733 14.887 22.8133 14.1803 22.1066C13.487 21.4133 13.1003 20.4933 13.1003 19.52C13.1003 18.5467 13.487 17.6133 14.1803 16.9333L16.0603 15.0533C16.447 14.6667 17.087 14.6667 17.4736 15.0533C17.8603 15.44 17.8603 16.08 17.4736 16.4666L15.5937 18.3467C15.2737 18.6667 15.1003 19.08 15.1003 19.52C15.1003 19.96 15.2737 20.3866 15.5937 20.6933C16.247 21.3466 17.3004 21.3466 17.9537 20.6933L20.9137 17.7333C22.607 16.04 22.607 13.2933 20.9137 11.6C19.2203 9.90666 16.4737 9.90666 14.7804 11.6L11.5536 14.8266C10.8736 15.5066 10.5003 16.4 10.5003 17.3467C10.5003 18.2933 10.8736 19.2 11.5536 19.8666C11.9403 20.2533 11.9403 20.8933 11.5536 21.28C11.167 21.6666 10.527 21.6666 10.1403 21.28C9.08697 20.2266 8.51367 18.8266 8.51367 17.3333C8.51367 15.84 9.08697 14.44 10.1403 13.3867L13.367 10.16C15.8337 7.6933 19.8603 7.6933 22.327 10.16C24.7937 12.6266 24.7937 16.6533 22.327 19.12L19.367 22.08C18.647 22.8133 17.7137 23.1733 16.767 23.1733Z" fill="#292D32"/>
</svg>
