<svg width="20" height="20" viewBox="0 0 20 20" fill="none" xmlns="http://www.w3.org/2000/svg">
<path d="M18.3332 7.49984V12.4998C18.3332 12.6832 18.3332 12.8665 18.3165 13.0415C17.6332 12.1999 16.5915 11.6665 15.4165 11.6665C14.5332 11.6665 13.7165 11.9748 13.0748 12.4915C12.2082 13.1748 11.6665 14.2332 11.6665 15.4165C11.6665 16.5915 12.1998 17.6332 13.0415 18.3165C12.8665 18.3332 12.6832 18.3332 12.4998 18.3332H7.49984C3.33317 18.3332 1.6665 16.6665 1.6665 12.4998V7.49984C1.6665 3.33317 3.33317 1.6665 7.49984 1.6665H12.4998C16.6665 1.6665 18.3332 3.33317 18.3332 7.49984Z" stroke="#4E4E4E" stroke-linecap="round" stroke-linejoin="round"/>
<path d="M2.1001 5.9248H17.9001" stroke="#4E4E4E" stroke-linecap="round" stroke-linejoin="round"/>
<path d="M7.1001 1.7583V5.80829" stroke="#4E4E4E" stroke-linecap="round" stroke-linejoin="round"/>
<path d="M12.8999 1.7583V5.43333" stroke="#4E4E4E" stroke-linecap="round" stroke-linejoin="round"/>
<path d="M19.1665 15.4165C19.1665 16.5415 18.6665 17.5415 17.8915 18.2332C17.2248 18.8082 16.3665 19.1665 15.4165 19.1665C14.5165 19.1665 13.6832 18.8498 13.0415 18.3165C12.1998 17.6332 11.6665 16.5915 11.6665 15.4165C11.6665 14.2332 12.2082 13.1748 13.0748 12.4915C13.7165 11.9748 14.5332 11.6665 15.4165 11.6665C16.5915 11.6665 17.6332 12.1999 18.3165 13.0415C18.8498 13.6832 19.1665 14.5165 19.1665 15.4165Z" stroke="#4E4E4E" stroke-miterlimit="10" stroke-linecap="round" stroke-linejoin="round"/>
<path d="M15.6501 14.2417V15.65L14.4834 16.35" stroke="#4E4E4E" stroke-miterlimit="10" stroke-linecap="round" stroke-linejoin="round"/>
</svg>
