<svg width="24" height="24" viewBox="0 0 24 24" fill="none" xmlns="http://www.w3.org/2000/svg">
<path d="M19.07 14.24C18.78 14.53 18.32 14.53 18.04 14.24C17.75 13.95 17.75 13.49 18.04 13.21C20.04 11.21 20.04 7.95999 18.04 5.96999C16.04 3.97999 12.79 3.96999 10.8 5.96999C8.81003 7.96999 8.80003 11.22 10.8 13.21C11.09 13.5 11.09 13.96 10.8 14.24C10.51 14.53 10.05 14.53 9.77003 14.24C7.20003 11.67 7.20003 7.48999 9.77003 4.92999C12.34 2.36999 16.52 2.35999 19.08 4.92999C21.64 7.49999 21.64 11.67 19.07 14.24Z" fill="#292D32"/>
<path opacity="0.4" d="M19.07 4.93C21.64 7.5 21.64 11.67 19.07 14.24C18.19 15.12 17.11 15.7 15.98 15.98C16.51 13.82 15.93 11.45 14.24 9.76C12.55 8.07 10.18 7.49 8.02002 8.02C8.30002 6.89 8.87002 5.81 9.76002 4.93C12.33 2.36 16.5 2.36 19.07 4.93Z" fill="#292D32"/>
<path d="M4.92997 9.76C5.21997 9.47 5.67997 9.47 5.95997 9.76C6.24997 10.05 6.24997 10.51 5.95997 10.79C3.95997 12.79 3.95997 16.04 5.95997 18.03C7.95997 20.02 11.21 20.03 13.2 18.03C15.19 16.03 15.2 12.78 13.2 10.79C12.91 10.5 12.91 10.04 13.2 9.76C13.49 9.47 13.95 9.47 14.23 9.76C16.8 12.33 16.8 16.51 14.23 19.07C11.66 21.63 7.47997 21.64 4.91997 19.07C2.35997 16.5 2.35997 12.33 4.92997 9.76Z" fill="#292D32"/>
<path opacity="0.5" d="M14.2399 9.76C15.9299 11.45 16.5099 13.82 15.9799 15.98C15.6999 17.11 15.1199 18.19 14.2399 19.07C11.6699 21.64 7.49994 21.64 4.92994 19.07C2.35994 16.5 2.35994 12.33 4.92994 9.76C5.80994 8.87 6.88994 8.3 8.01994 8.02C10.1799 7.49 12.5499 8.07 14.2399 9.76Z" fill="#292D32"/>
</svg>
