<svg width="104" height="104" viewBox="0 0 104 104" fill="none" xmlns="http://www.w3.org/2000/svg">
<path d="M95.3333 60.2334V70.1568C95.3333 85.9301 85.93 95.3334 70.1567 95.3334H33.8433C22.7933 95.3334 14.82 90.6968 11.0933 82.4634L11.57 82.1168L32.89 67.8168C36.3567 65.4768 41.2533 65.7368 44.33 68.4234L45.8033 69.6368C49.1833 72.5401 54.6433 72.5401 58.0233 69.6368L76.05 54.1668C79.43 51.2634 84.89 51.2634 88.27 54.1668L95.3333 60.2334Z" fill="#292D32"/>
<path opacity="0.4" d="M90.87 34.6665H78.13C72.6267 34.6665 69.3334 31.3732 69.3334 25.8698V13.1298C69.3334 11.3965 69.68 9.92317 70.2867 8.6665C70.2434 8.6665 70.2 8.6665 70.1567 8.6665H33.8434C18.07 8.6665 8.66669 18.0698 8.66669 33.8432V70.1565C8.66669 74.8798 9.49002 78.9965 11.0934 82.4632L11.57 82.1165L32.89 67.8165C36.3567 65.4765 41.2534 65.7365 44.33 68.4232L45.8034 69.6365C49.1834 72.5398 54.6434 72.5398 58.0234 69.6365L76.05 54.1665C79.43 51.2632 84.89 51.2632 88.27 54.1665L95.3334 60.2332V33.8432C95.3334 33.7998 95.3334 33.7565 95.3334 33.7132C94.0767 34.3198 92.6034 34.6665 90.87 34.6665Z" fill="#292D32"/>
<path d="M39 44.9802C44.6959 44.9802 49.3133 40.3627 49.3133 34.6668C49.3133 28.971 44.6959 24.3535 39 24.3535C33.3041 24.3535 28.6866 28.971 28.6866 34.6668C28.6866 40.3627 33.3041 44.9802 39 44.9802Z" fill="#292D32"/>
<path d="M90.87 4.3335H78.13C72.6266 4.3335 69.3333 7.62683 69.3333 13.1302V25.8702C69.3333 31.3735 72.6266 34.6668 78.13 34.6668H90.87C96.3733 34.6668 99.6666 31.3735 99.6666 25.8702V13.1302C99.6666 7.62683 96.3733 4.3335 90.87 4.3335ZM94.9433 21.3635C94.51 21.7968 93.86 22.1002 93.1666 22.1435H87.0566L87.1 28.1668C87.0566 28.9035 86.7966 29.5102 86.2766 30.0302C85.8433 30.4635 85.1933 30.7668 84.5 30.7668C83.07 30.7668 81.9 29.5968 81.9 28.1668V22.1002L75.8333 22.1435C74.4033 22.1435 73.2333 20.9302 73.2333 19.5002C73.2333 18.0702 74.4033 16.9002 75.8333 16.9002L81.9 16.9435V10.8768C81.9 9.44683 83.07 8.2335 84.5 8.2335C85.93 8.2335 87.1 9.44683 87.1 10.8768L87.0566 16.9002H93.1666C94.5966 16.9002 95.7666 18.0702 95.7666 19.5002C95.7233 20.2368 95.42 20.8435 94.9433 21.3635Z" fill="#292D32"/>
</svg>
