<svg width="14" height="15" viewBox="0 0 14 15" fill="none" xmlns="http://www.w3.org/2000/svg">
<g id="vuesax/linear/global">
<g id="vuesax/linear/global_2">
<g id="global">
<path id="Vector" d="M6.99996 13.3333C10.2216 13.3333 12.8333 10.7217 12.8333 7.49999C12.8333 4.27833 10.2216 1.66666 6.99996 1.66666C3.7783 1.66666 1.16663 4.27833 1.16663 7.49999C1.16663 10.7217 3.7783 13.3333 6.99996 13.3333Z" stroke="#656565" stroke-linecap="round" stroke-linejoin="round"/>
<path id="Vector_2" d="M4.66664 2.25H5.24998C4.11248 5.65667 4.11248 9.34333 5.24998 12.75H4.66664" stroke="#656565" stroke-linecap="round" stroke-linejoin="round"/>
<path id="Vector_3" d="M8.75 2.25C9.8875 5.65667 9.8875 9.34333 8.75 12.75" stroke="#656565" stroke-linecap="round" stroke-linejoin="round"/>
<path id="Vector_4" d="M1.75 9.83333V9.25C5.15667 10.3875 8.84333 10.3875 12.25 9.25V9.83333" stroke="#656565" stroke-linecap="round" stroke-linejoin="round"/>
<path id="Vector_5" d="M1.75 5.75001C5.15667 4.61251 8.84333 4.61251 12.25 5.75001" stroke="#656565" stroke-linecap="round" stroke-linejoin="round"/>
</g>
</g>
</g>
</svg>
