<svg width="166" height="166" viewBox="0 0 166 166" fill="none" xmlns="http://www.w3.org/2000/svg">
<path opacity="0.4" d="M111.981 13.8333H54.0193C28.8427 13.8333 13.8335 28.8424 13.8335 54.0191V111.912C13.8335 137.157 28.8427 152.167 54.0193 152.167H111.912C137.089 152.167 152.098 137.157 152.098 111.981V54.0191C152.167 28.8424 137.158 13.8333 111.981 13.8333Z" fill="#FFC700"/>
<path d="M73.5935 65.7083C72.2793 65.7083 70.9651 65.2241 69.9276 64.1866C65.0168 59.2758 56.9935 59.2758 52.0826 64.1866C50.0768 66.1925 46.7568 66.1925 44.751 64.1866C42.7451 62.1808 42.7451 58.8608 44.751 56.855C53.6735 47.9325 68.2676 47.9325 77.2593 56.855C79.2651 58.8608 79.2651 62.1808 77.2593 64.1866C76.2218 65.2241 74.9076 65.7083 73.5935 65.7083Z" fill="#FFC700"/>
<path d="M92.4065 65.7083C91.0924 65.7083 89.7782 65.2241 88.7407 64.1866C86.7349 62.1808 86.7349 58.8608 88.7407 56.855C97.6632 47.9325 112.257 47.9325 121.249 56.855C123.255 58.8608 123.255 62.1808 121.249 64.1866C119.243 66.1925 115.923 66.1925 113.917 64.1866C109.007 59.2758 100.983 59.2758 96.0724 64.1866C95.104 65.2241 93.7899 65.7083 92.4065 65.7083Z" fill="#FFC700"/>
<path d="M82.9999 82.4468C64.3941 82.4468 49.2466 97.5943 49.2466 116.2C49.2466 121.042 53.1891 125.053 58.0308 125.053H107.831C112.672 125.053 116.615 121.111 116.615 116.2C116.753 97.5943 101.606 82.4468 82.9999 82.4468Z" fill="#FFC700"/>
</svg>
