<svg width="16" height="16" viewBox="0 0 16 16" fill="none" xmlns="http://www.w3.org/2000/svg">
<path d="M14.6668 5.79332C14.6668 6.58665 14.5402 7.31998 14.3202 7.99998H1.68016C1.46016 7.31998 1.3335 6.58665 1.3335 5.79332C1.3335 3.73332 2.9935 2.06665 5.04016 2.06665C6.24683 2.06665 7.32683 2.65332 8.00016 3.55332C8.6735 2.65332 9.7535 2.06665 10.9602 2.06665C13.0068 2.06665 14.6668 3.73332 14.6668 5.79332Z" fill="#FF0000"/>
<path opacity="0.4" d="M14.3202 8C13.2668 11.3333 10.0202 13.3267 8.41351 13.8733C8.18684 13.9533 7.81351 13.9533 7.58684 13.8733C5.98018 13.3267 2.73351 11.3333 1.68018 8H14.3202Z" fill="#FF0000"/>
</svg>
