<svg width="18" height="18" viewBox="0 0 18 18" fill="none" xmlns="http://www.w3.org/2000/svg">
<g id="vuesax/bulk/more">
<g id="more">
<path id="Vector" opacity="0.4" d="M12.1425 1.5H5.8575C3.1275 1.5 1.5 3.1275 1.5 5.8575V12.135C1.5 14.8725 3.1275 16.5 5.8575 16.5H12.135C14.865 16.5 16.4925 14.8725 16.4925 12.1425V5.8575C16.5 3.1275 14.8725 1.5 12.1425 1.5Z" fill="#292D32"/>
<path id="Vector_2" d="M8.99996 8.01758C8.45996 8.01758 8.01746 8.46008 8.01746 9.00008C8.01746 9.54008 8.45996 9.98258 8.99996 9.98258C9.53996 9.98258 9.98246 9.54008 9.98246 9.00008C9.98246 8.46008 9.53996 8.01758 8.99996 8.01758Z" fill="#292D32"/>
<path id="Vector_3" d="M5.24996 8.01758C4.70996 8.01758 4.26746 8.46008 4.26746 9.00008C4.26746 9.54008 4.70996 9.98258 5.24996 9.98258C5.78996 9.98258 6.23246 9.54008 6.23246 9.00008C6.23246 8.46008 5.78996 8.01758 5.24996 8.01758Z" fill="#292D32"/>
<path id="Vector_4" d="M12.75 8.01758C12.21 8.01758 11.7675 8.46008 11.7675 9.00008C11.7675 9.54008 12.21 9.98258 12.75 9.98258C13.29 9.98258 13.7325 9.54008 13.7325 9.00008C13.7325 8.46008 13.29 8.01758 12.75 8.01758Z" fill="#292D32"/>
</g>
</g>
</svg>
