<svg width="32" height="32" viewBox="0 0 32 32" fill="none" xmlns="http://www.w3.org/2000/svg">
<path d="M27.7734 10.6813L19.04 3.69466C17.3334 2.33466 14.6667 2.32133 12.9734 3.68133L4.24003 10.6813C2.9867 11.6813 2.2267 13.6813 2.49337 15.2547L4.17337 25.308C4.56003 27.5613 6.65337 29.3347 8.93336 29.3347H23.0667C25.32 29.3347 27.4534 27.5213 27.84 25.2947L29.52 15.2413C29.76 13.6813 29 11.6813 27.7734 10.6813ZM17 24.0013C17 24.548 16.5467 25.0013 16 25.0013C15.4534 25.0013 15 24.548 15 24.0013V20.0013C15 19.4547 15.4534 19.0013 16 19.0013C16.5467 19.0013 17 19.4547 17 20.0013V24.0013Z" fill="black"/>
</svg>
