<svg width="57" height="56" viewBox="0 0 57 56" fill="none" xmlns="http://www.w3.org/2000/svg">
<rect x="1" y="0.5" width="55" height="55" rx="27.5" fill="white"/>
<rect x="1" y="0.5" width="55" height="55" rx="27.5" stroke="#E9E9E9"/>
<path d="M24.44 30.5099C23.82 30.2799 23.27 29.8299 22.92 29.1899C22.12 27.7299 22.61 25.8299 24.03 24.9499L26.37 23.4999C27.78 22.6199 29.6 23.0999 30.4 24.5499C31.2 26.0099 30.71 27.9099 29.29 28.7899L28.98 29.0099" stroke="#292D32" stroke-width="1.5" stroke-linecap="round" stroke-linejoin="round"/>
<path d="M32.61 25.4502C33.23 25.6802 33.78 26.1302 34.13 26.7702C34.93 28.2302 34.44 30.1302 33.02 31.0102L30.6799 32.4602C29.2699 33.3402 27.4499 32.8602 26.6499 31.4102C25.8499 29.9502 26.3399 28.0502 27.7599 27.1702L28.07 26.9502" stroke="#292D32" stroke-width="1.5" stroke-linecap="round" stroke-linejoin="round"/>
<path d="M28.5 38C34.0228 38 38.5 33.5228 38.5 28C38.5 22.4772 34.0228 18 28.5 18C22.9772 18 18.5 22.4772 18.5 28C18.5 33.5228 22.9772 38 28.5 38Z" stroke="#292D32" stroke-width="1.5" stroke-linecap="round" stroke-linejoin="round"/>
</svg>
