<svg width="38" height="38" viewBox="0 0 38 38" fill="none" xmlns="http://www.w3.org/2000/svg">
<g id="vuesax/bulk/link-circle">
<g id="link-circle">
<path id="Vector" opacity="0.4" d="M19 34.8334C27.7445 34.8334 34.8333 27.7445 34.8333 19C34.8333 10.2555 27.7445 3.16669 19 3.16669C10.2555 3.16669 3.16663 10.2555 3.16663 19C3.16663 27.7445 10.2555 34.8334 19 34.8334Z" fill="#FF0000"/>
<g id="Group">
<path id="Vector_2" d="M12.5717 24.1616C12.4292 24.1616 12.3025 24.1458 12.16 24.0825C10.8775 23.6075 9.80086 22.6733 9.12002 21.4541C7.53669 18.6041 8.51837 14.8833 11.2892 13.1575L14.9942 10.8616C16.3559 10.0224 17.955 9.76915 19.475 10.165C20.995 10.5608 22.2775 11.5583 23.0534 12.9516C24.6367 15.8016 23.655 19.5225 20.8842 21.2483L20.4725 21.5491C19.9342 21.9291 19.19 21.8025 18.81 21.28C18.43 20.7416 18.5567 19.9975 19.0792 19.6175L19.57 19.2692C21.3434 18.1608 21.945 15.865 20.9792 14.1075C20.52 13.2841 19.7759 12.6983 18.8892 12.4608C18.0025 12.2233 17.0684 12.3658 16.2609 12.8725L12.5559 15.1683C10.8459 16.2291 10.2442 18.525 11.21 20.2983C11.6059 21.0108 12.2392 21.5649 12.9992 21.8499C13.6167 22.0716 13.9334 22.7525 13.6959 23.37C13.5217 23.8608 13.0625 24.1616 12.5717 24.1616Z" fill="#FF0000"/>
</g>
<g id="Group_2">
<path id="Vector_3" d="M20.045 27.9458C19.57 27.9458 19.0792 27.8825 18.6042 27.7558C17.0842 27.36 15.8017 26.3625 15.0417 24.9692C13.4583 22.1192 14.44 18.3983 17.2108 16.6725L17.6225 16.3717C18.1608 15.9917 18.905 16.1184 19.285 16.6409C19.665 17.1792 19.5383 17.9233 19.0158 18.3033L18.525 18.6517C16.7517 19.76 16.15 22.0559 17.1158 23.8134C17.575 24.6367 18.3192 25.2225 19.2058 25.46C20.0925 25.6975 21.0266 25.555 21.8341 25.0484L25.5392 22.7525C27.2492 21.6917 27.8508 19.3959 26.885 17.6225C26.4892 16.91 25.8558 16.3558 25.0958 16.0708C24.4783 15.8492 24.1617 15.1684 24.3992 14.5509C24.6208 13.9334 25.3175 13.6167 25.9192 13.8542C27.2017 14.3292 28.2783 15.2634 28.9591 16.4825C30.5425 19.3325 29.5608 23.0533 26.79 24.7792L23.085 27.075C22.1508 27.645 21.1058 27.9458 20.045 27.9458Z" fill="#FF0000"/>
</g>
</g>
</g>
</svg>
