<svg width="96" height="96" viewBox="0 0 96 96" fill="none" xmlns="http://www.w3.org/2000/svg">
<g id="vuesax/bulk/logout">
<g id="logout">
<path id="Vector" opacity="0.4" d="M36 28.8V67.16C36 80 44 88 56.8 88H67.16C79.96 88 87.96 80 87.96 67.2V28.8C88 16 80 8 67.2 8H56.8C44 8 36 16 36 28.8Z" fill="#292D32"/>
<path id="Vector_2" d="M22.2798 32.48L8.87977 45.88C7.71977 47.04 7.71977 48.96 8.87977 50.12L22.2798 63.52C23.4398 64.68 25.3598 64.68 26.5198 63.52C27.6798 62.36 27.6798 60.44 26.5198 59.28L18.2398 51H60.9998C62.6398 51 63.9998 49.64 63.9998 48C63.9998 46.36 62.6398 45 60.9998 45H18.2398L26.5198 36.72C27.1198 36.12 27.3998 35.36 27.3998 34.6C27.3998 33.84 27.1198 33.04 26.5198 32.48C25.3598 31.28 23.4798 31.28 22.2798 32.48Z" fill="#292D32"/>
</g>
</g>
</svg>
