<svg width="56" height="56" viewBox="0 0 56 56" fill="none" xmlns="http://www.w3.org/2000/svg">
<rect x="0.5" y="0.5" width="55" height="55" rx="27.5" fill="white"/>
<rect x="0.5" y="0.5" width="55" height="55" rx="27.5" stroke="#959595"/>
<path opacity="0.4" d="M38 23.4302V29.4302C38 30.9302 37.5 32.1802 36.62 33.0602C35.75 33.9302 34.5 34.4302 33 34.4302V36.5602C33 37.3602 32.11 37.8402 31.45 37.4002L27 34.4302H24.88C24.96 34.1302 25 33.8202 25 33.5002C25 32.4802 24.61 31.5402 23.97 30.8302C23.25 30.0102 22.18 29.5002 21 29.5002C19.88 29.5002 18.86 29.9602 18.13 30.7102C18.04 30.3102 18 29.8802 18 29.4302V23.4302C18 20.4302 20 18.4302 23 18.4302H33C36 18.4302 38 20.4302 38 23.4302Z" fill="black"/>
<path d="M31.75 27.0005H24.75C24.34 27.0005 24 26.6605 24 26.2505C24 25.8405 24.34 25.5005 24.75 25.5005H31.75C32.16 25.5005 32.5 25.8405 32.5 26.2505C32.5 26.6605 32.16 27.0005 31.75 27.0005Z" fill="black"/>
<path d="M24.9881 33.7123C25.0588 32.6233 24.6628 31.5061 23.8284 30.6717C22.2657 29.109 19.7343 29.109 18.1716 30.6717C17.6412 31.202 17.2877 31.8525 17.125 32.5384C17.0261 32.9203 16.9907 33.3233 17.019 33.7193C17.0614 34.6668 17.4433 35.6002 18.1716 36.3285C19.2039 37.3609 20.6535 37.7074 21.9617 37.3751C22.6476 37.2124 23.2981 36.8589 23.8284 36.3285C24.5497 35.6073 24.9386 34.6669 24.9881 33.7123ZM21.0141 35.7487C20.802 35.7487 20.6182 35.6639 20.4838 35.5295C20.3495 35.3952 20.2646 35.2113 20.2646 34.9992L20.2646 34.2496L19.4868 34.2496C19.2747 34.2496 19.0908 34.1648 18.9565 34.0304C18.8221 33.8961 18.7373 33.7122 18.7373 33.5001C18.7373 33.09 19.0767 32.7506 19.4868 32.7506L20.2646 32.7506L20.2646 32.0011C20.2646 31.591 20.604 31.2515 21.0141 31.2515C21.4243 31.2515 21.7637 31.591 21.7637 32.0011L21.7637 32.7506H22.4708C22.8809 32.7506 23.2203 33.09 23.2203 33.5001C23.2203 33.9102 22.8809 34.2496 22.4708 34.2496H21.7637L21.7637 34.9992C21.7637 35.4093 21.4313 35.7417 21.0141 35.7487Z" fill="black"/>
</svg>
