<svg width="20" height="20" viewBox="0 0 20 20" fill="none" xmlns="http://www.w3.org/2000/svg">
<g id="vuesax/bulk/messages">
<g id="messages">
<path id="Vector" opacity="0.4" d="M14.9834 8.99167V12.325C14.9834 12.5417 14.9751 12.75 14.9501 12.95C14.7584 15.2 13.4334 16.3167 10.9917 16.3167H10.6584C10.4501 16.3167 10.2501 16.4167 10.1251 16.5833L9.12509 17.9167C8.68342 18.5083 7.96675 18.5083 7.52508 17.9167L6.52507 16.5833C6.41674 16.4417 6.17508 16.3167 5.99175 16.3167H5.65842C3.00009 16.3167 1.66675 15.6583 1.66675 12.325V8.99167C1.66675 6.55001 2.79176 5.22501 5.03342 5.03334C5.23342 5.00834 5.44176 5 5.65842 5H10.9917C13.6501 5 14.9834 6.33334 14.9834 8.99167Z" fill="black"/>
<g id="Group">
<path id="Vector_2" d="M8.32503 11.6667C7.85837 11.6667 7.4917 11.2917 7.4917 10.8333C7.4917 10.375 7.8667 10 8.32503 10C8.78337 10 9.15837 10.375 9.15837 10.8333C9.15837 11.2917 8.7917 11.6667 8.32503 11.6667Z" fill="black"/>
</g>
<g id="Group_2">
<path id="Vector_3" d="M11.2415 11.6667C10.7749 11.6667 10.4082 11.2917 10.4082 10.8333C10.4082 10.375 10.7832 10 11.2415 10C11.6999 10 12.0749 10.375 12.0749 10.8333C12.0749 11.2917 11.6999 11.6667 11.2415 11.6667Z" fill="black"/>
</g>
<g id="Group_3">
<path id="Vector_4" d="M5.41659 11.6667C4.94992 11.6667 4.58325 11.2917 4.58325 10.8333C4.58325 10.375 4.95825 10 5.41659 10C5.87492 10 6.24992 10.375 6.24992 10.8333C6.24992 11.2917 5.87492 11.6667 5.41659 11.6667Z" fill="black"/>
</g>
<path id="Vector_5" d="M18.3168 5.65842V8.99175C18.3168 11.4418 17.1918 12.7584 14.9501 12.9501C14.9751 12.7501 14.9834 12.5418 14.9834 12.3251V8.99175C14.9834 6.33342 13.6501 5.00008 10.9918 5.00008H5.65845C5.44178 5.00008 5.23345 5.00842 5.03345 5.03342C5.22511 2.79176 6.55011 1.66675 8.99178 1.66675H14.3251C16.9834 1.66675 18.3168 3.00009 18.3168 5.65842Z" fill="black"/>
</g>
</g>
</svg>
