<svg width="30" height="30" viewBox="0 0 30 30" fill="none" xmlns="http://www.w3.org/2000/svg">
<g id="vuesax/linear/pause-circle">
<g id="pause-circle">
<path id="Vector" d="M14.9625 27.5C21.8661 27.5 27.4625 21.9036 27.4625 15C27.4625 8.09644 21.8661 2.5 14.9625 2.5C8.05893 2.5 2.46249 8.09644 2.46249 15C2.46249 21.9036 8.05893 27.5 14.9625 27.5Z" stroke="#292D32" stroke-width="1.5" stroke-linecap="round" stroke-linejoin="round"/>
<path id="Vector_2" d="M13.4 18.1625V11.8375C13.4 11.2375 13.15 11 12.5125 11H10.8875C10.25 11 10 11.2375 10 11.8375V18.1625C10 18.7625 10.25 19 10.8875 19H12.5C13.15 19 13.4 18.7625 13.4 18.1625Z" stroke="#292D32" stroke-width="1.5" stroke-linecap="round" stroke-linejoin="round"/>
<path id="Vector_3" d="M20 18.1625V11.8375C20 11.2375 19.75 11 19.1125 11H17.5C16.8625 11 16.6125 11.2375 16.6125 11.8375V18.1625C16.6125 18.7625 16.8625 19 17.5 19H19.1125C19.75 19 20 18.7625 20 18.1625Z" stroke="#292D32" stroke-width="1.5" stroke-linecap="round" stroke-linejoin="round"/>
</g>
</g>
</svg>
