<svg width="32" height="32" viewBox="0 0 32 32" fill="none" xmlns="http://www.w3.org/2000/svg">
<path d="M23.3734 10.3613C23.2801 10.348 23.1867 10.348 23.0934 10.3613C21.0267 10.2946 19.3867 8.6013 19.3867 6.5213C19.3867 4.4013 21.1067 2.66797 23.2401 2.66797C25.3601 2.66797 27.0934 4.38797 27.0934 6.5213C27.0801 8.6013 25.4401 10.2946 23.3734 10.3613Z" fill="#9A9A9A"/>
<path d="M27.72 19.6005C26.2266 20.6005 24.1333 20.9739 22.2 20.7205C22.7066 19.6272 22.9733 18.4139 22.9866 17.1339C22.9866 15.8005 22.6933 14.5339 22.1333 13.4272C24.1066 13.1605 26.2 13.5339 27.7066 14.5339C29.8133 15.9205 29.8133 18.2005 27.72 19.6005Z" fill="#9A9A9A"/>
<path d="M8.58667 10.3613C8.68 10.348 8.77334 10.348 8.86667 10.3613C10.9333 10.2946 12.5733 8.6013 12.5733 6.5213C12.5733 4.38797 10.8533 2.66797 8.72 2.66797C6.6 2.66797 4.88 4.38797 4.88 6.5213C4.88 8.6013 6.52 10.2946 8.58667 10.3613Z" fill="#9A9A9A"/>
<path d="M8.73337 17.1341C8.73337 18.4275 9.01337 19.6541 9.52003 20.7608C7.64003 20.9608 5.68003 20.5608 4.24003 19.6141C2.13337 18.2141 2.13337 15.9341 4.24003 14.5341C5.6667 13.5741 7.68003 13.1875 9.57337 13.4008C9.0267 14.5208 8.73337 15.7875 8.73337 17.1341Z" fill="#9A9A9A"/>
<path d="M16.16 21.16C16.0534 21.1467 15.9334 21.1467 15.8134 21.16C13.36 21.08 11.4 19.0667 11.4 16.5867C11.4134 14.0533 13.4534 12 16 12C18.5334 12 20.5867 14.0533 20.5867 16.5867C20.5734 19.0667 18.6267 21.08 16.16 21.16Z" fill="#9A9A9A"/>
<path d="M11.8267 23.9195C9.81332 25.2662 9.81332 27.4795 11.8267 28.8129C14.12 30.3462 17.88 30.3462 20.1733 28.8129C22.1867 27.4662 22.1867 25.2529 20.1733 23.9195C17.8933 22.3862 14.1333 22.3862 11.8267 23.9195Z" fill="#9A9A9A"/>
</svg>
