<svg width="18" height="18" viewBox="0 0 18 18" fill="none" xmlns="http://www.w3.org/2000/svg">
<g id="vuesax/bulk/security-safe">
<g id="security-safe">
<path id="Vector" opacity="0.4" d="M15.6825 8.34022C15.6825 12.0077 13.02 15.4427 9.38251 16.4477C9.13502 16.5152 8.865 16.5152 8.6175 16.4477C4.98 15.4427 2.3175 12.0077 2.3175 8.34022V5.04773C2.3175 4.43273 2.78252 3.73523 3.36002 3.50273L7.5375 1.79273C8.475 1.41023 9.5325 1.41023 10.47 1.79273L14.6475 3.50273C15.2175 3.73523 15.69 4.43273 15.69 5.04773L15.6825 8.34022Z" fill="#292D32"/>
<path id="Vector_2" d="M10.875 7.875C10.875 6.84 10.035 6 9 6C7.965 6 7.125 6.84 7.125 7.875C7.125 8.715 7.68 9.4125 8.4375 9.6525V11.625C8.4375 11.9325 8.6925 12.1875 9 12.1875C9.3075 12.1875 9.5625 11.9325 9.5625 11.625V9.6525C10.32 9.4125 10.875 8.715 10.875 7.875Z" fill="#292D32"/>
</g>
</g>
</svg>
