<svg width="61" height="61" viewBox="0 0 61 61" fill="none" xmlns="http://www.w3.org/2000/svg">
<circle cx="30.5" cy="30.5" r="30.5" fill="black"/>
<path opacity="0.4" d="M38.5 29.19H35.61C33.24 29.19 31.31 27.26 31.31 24.89V22C31.31 21.45 30.86 21 30.31 21H26.07C22.99 21 20.5 23 20.5 26.57V35.43C20.5 39 22.99 41 26.07 41H33.93C37.01 41 39.5 39 39.5 35.43V30.19C39.5 29.64 39.05 29.19 38.5 29.19Z" fill="white"/>
<path d="M33.8001 21.21C33.3901 20.8 32.6801 21.08 32.6801 21.65V25.14C32.6801 26.6 33.9201 27.81 35.4301 27.81C36.3801 27.82 37.7001 27.82 38.8301 27.82C39.4001 27.82 39.7001 27.15 39.3001 26.75C37.8601 25.3 35.2801 22.69 33.8001 21.21Z" fill="white"/>
<path d="M29.5299 31.47L27.5299 29.47C27.5199 29.46 27.5099 29.46 27.5099 29.45C27.4499 29.39 27.3699 29.34 27.2899 29.3C27.2799 29.3 27.2799 29.3 27.2699 29.3C27.1899 29.27 27.1099 29.26 27.0299 29.25C26.9999 29.25 26.9799 29.25 26.9499 29.25C26.8899 29.25 26.8199 29.27 26.7599 29.29C26.7299 29.3 26.7099 29.31 26.6899 29.32C26.6099 29.36 26.5299 29.4 26.4699 29.47L24.4699 31.47C24.1799 31.76 24.1799 32.24 24.4699 32.53C24.7599 32.82 25.2399 32.82 25.5299 32.53L26.2499 31.81V36C26.2499 36.41 26.5899 36.75 26.9999 36.75C27.4099 36.75 27.7499 36.41 27.7499 36V31.81L28.4699 32.53C28.6199 32.68 28.8099 32.75 28.9999 32.75C29.1899 32.75 29.3799 32.68 29.5299 32.53C29.8199 32.24 29.8199 31.76 29.5299 31.47Z" fill="white"/>
</svg>
