<svg width="24" height="24" viewBox="0 0 24 24" fill="none" xmlns="http://www.w3.org/2000/svg">
<g id="Frame">
<path id="Vector" d="M16 8.99V20.35C16 21.8 14.96 22.41 13.69 21.71L9.76001 19.52C9.34001 19.29 8.65999 19.29 8.23999 19.52L4.31 21.71C3.04 22.41 2 21.8 2 20.35V8.99C2 7.27999 3.39999 5.88 5.10999 5.88H12.89C14.6 5.88 16 7.27999 16 8.99Z" stroke="#292D32" stroke-width="1.5" stroke-linecap="round" stroke-linejoin="round"/>
<path id="Vector_2" d="M22 5.10999V16.47C22 17.92 20.96 18.53 19.69 17.83L16 15.77V8.98999C16 7.27999 14.6 5.88 12.89 5.88H8V5.10999C8 3.39999 9.39999 2 11.11 2H18.89C20.6 2 22 3.39999 22 5.10999Z" stroke="#292D32" stroke-width="1.5" stroke-linecap="round" stroke-linejoin="round"/>
<path id="Vector_3" d="M7 12H11" stroke="#292D32" stroke-width="1.5" stroke-linecap="round" stroke-linejoin="round"/>
<path id="Vector_4" d="M9 14V10" stroke="#292D32" stroke-width="1.5" stroke-linecap="round" stroke-linejoin="round"/>
</g>
</svg>
