<svg width="579" height="46" viewBox="0 0 579 46" fill="none" xmlns="http://www.w3.org/2000/svg">
<path d="M11.66 32V17.1H21.36V18.9H13.62V23.62H20.96V25.42H13.62V30.2H21.36V32H11.66ZM28.4689 32.24C27.4556 32.24 26.5422 31.9933 25.7289 31.5C24.9289 31.0067 24.2956 30.3333 23.8289 29.48C23.3622 28.6267 23.1289 27.6733 23.1289 26.62C23.1289 25.54 23.3622 24.58 23.8289 23.74C24.2956 22.8867 24.9289 22.2133 25.7289 21.72C26.5422 21.2267 27.4556 20.98 28.4689 20.98C29.3622 20.98 30.1556 21.1733 30.8489 21.56C31.5422 21.9333 32.0889 22.44 32.4889 23.08L32.1889 23.54V16.86H34.0689V32H32.2489V29.7L32.4889 30.02C32.1156 30.7267 31.5689 31.2733 30.8489 31.66C30.1422 32.0467 29.3489 32.24 28.4689 32.24ZM28.6289 30.44C29.3089 30.44 29.9156 30.2733 30.4489 29.94C30.9822 29.6067 31.4022 29.1533 31.7089 28.58C32.0289 27.9933 32.1889 27.34 32.1889 26.62C32.1889 25.8867 32.0289 25.2333 31.7089 24.66C31.4022 24.0733 30.9822 23.6133 30.4489 23.28C29.9156 22.9467 29.3089 22.78 28.6289 22.78C27.9622 22.78 27.3556 22.9533 26.8089 23.3C26.2756 23.6333 25.8556 24.0867 25.5489 24.66C25.2422 25.22 25.0889 25.8733 25.0889 26.62C25.0889 27.34 25.2422 27.9933 25.5489 28.58C25.8556 29.1533 26.2756 29.6067 26.8089 29.94C27.3422 30.2733 27.9489 30.44 28.6289 30.44ZM40.7678 32.24C39.9945 32.24 39.2945 32.06 38.6678 31.7C38.0545 31.34 37.5745 30.84 37.2278 30.2C36.8945 29.5467 36.7278 28.8 36.7278 27.96V21.22H38.5878V27.76C38.5878 28.2933 38.6945 28.76 38.9078 29.16C39.1345 29.56 39.4411 29.8733 39.8278 30.1C40.2278 30.3267 40.6811 30.44 41.1878 30.44C41.6945 30.44 42.1411 30.3267 42.5278 30.1C42.9278 29.8733 43.2345 29.5467 43.4478 29.12C43.6745 28.6933 43.7878 28.1867 43.7878 27.6V21.22H45.6678V32H43.8478V29.9L44.1478 30.08C43.8945 30.76 43.4611 31.2933 42.8478 31.68C42.2478 32.0533 41.5545 32.24 40.7678 32.24ZM53.5494 32.24C52.496 32.24 51.556 31.9933 50.7294 31.5C49.916 31.0067 49.276 30.3333 48.8094 29.48C48.3427 28.6267 48.1094 27.6667 48.1094 26.6C48.1094 25.52 48.3427 24.56 48.8094 23.72C49.276 22.88 49.916 22.2133 50.7294 21.72C51.556 21.2267 52.496 20.98 53.5494 20.98C54.256 20.98 54.916 21.1067 55.5294 21.36C56.1427 21.6133 56.6827 21.9533 57.1494 22.38C57.616 22.8067 57.956 23.3067 58.1694 23.88L56.5094 24.68C56.256 24.12 55.8694 23.6667 55.3494 23.32C54.8294 22.96 54.2294 22.78 53.5494 22.78C52.896 22.78 52.3027 22.9467 51.7694 23.28C51.2494 23.6133 50.836 24.0667 50.5294 24.64C50.2227 25.2133 50.0694 25.8733 50.0694 26.62C50.0694 27.34 50.2227 27.9933 50.5294 28.58C50.836 29.1533 51.2494 29.6067 51.7694 29.94C52.3027 30.2733 52.896 30.44 53.5494 30.44C54.2294 30.44 54.8294 30.2667 55.3494 29.92C55.8694 29.56 56.256 29.0867 56.5094 28.5L58.1694 29.34C57.956 29.9 57.616 30.4 57.1494 30.84C56.6827 31.2667 56.1427 31.6067 55.5294 31.86C54.916 32.1133 54.256 32.24 53.5494 32.24ZM63.6234 32.24C62.9168 32.24 62.2901 32.1133 61.7434 31.86C61.2101 31.5933 60.7901 31.2333 60.4834 30.78C60.1768 30.3133 60.0234 29.78 60.0234 29.18C60.0234 28.6067 60.1434 28.0933 60.3834 27.64C60.6368 27.1733 61.0234 26.78 61.5434 26.46C62.0768 26.14 62.7434 25.9133 63.5434 25.78L67.5434 25.12V26.68L63.9634 27.28C63.2701 27.4 62.7634 27.62 62.4434 27.94C62.1368 28.26 61.9834 28.6533 61.9834 29.12C61.9834 29.56 62.1568 29.9267 62.5034 30.22C62.8634 30.5133 63.3101 30.66 63.8434 30.66C64.5234 30.66 65.1101 30.52 65.6034 30.24C66.1101 29.9467 66.5034 29.5533 66.7834 29.06C67.0768 28.5667 67.2234 28.02 67.2234 27.42V24.68C67.2234 24.0933 67.0034 23.62 66.5634 23.26C66.1368 22.8867 65.5701 22.7 64.8634 22.7C64.2501 22.7 63.7034 22.86 63.2234 23.18C62.7568 23.4867 62.4101 23.9 62.1834 24.42L60.5634 23.58C60.7634 23.0867 61.0834 22.6467 61.5234 22.26C61.9634 21.86 62.4768 21.5467 63.0634 21.32C63.6501 21.0933 64.2634 20.98 64.9034 20.98C65.7301 20.98 66.4568 21.14 67.0834 21.46C67.7101 21.7667 68.1968 22.2 68.5434 22.76C68.9034 23.3067 69.0834 23.9467 69.0834 24.68V32H67.2634V29.96L67.6034 30.08C67.3768 30.5067 67.0701 30.88 66.6834 31.2C66.2968 31.52 65.8434 31.7733 65.3234 31.96C64.8034 32.1467 64.2368 32.24 63.6234 32.24ZM76.152 32.12C75.0987 32.12 74.2854 31.82 73.712 31.22C73.152 30.62 72.872 29.7733 72.872 28.68V23H70.912V21.22H71.312C71.792 21.22 72.172 21.0733 72.452 20.78C72.732 20.4867 72.872 20.1 72.872 19.62V18.74H74.732V21.22H77.152V23H74.732V28.62C74.732 28.98 74.7854 29.2933 74.892 29.56C75.012 29.8267 75.2054 30.04 75.472 30.2C75.7387 30.3467 76.092 30.42 76.532 30.42C76.6254 30.42 76.7387 30.4133 76.872 30.4C77.0187 30.3867 77.152 30.3733 77.272 30.36V32C77.0987 32.04 76.9054 32.0667 76.692 32.08C76.4787 32.1067 76.2987 32.12 76.152 32.12ZM79.7017 32V21.22H81.5617V32H79.7017ZM79.7017 19.5V17.1H81.5617V19.5H79.7017ZM89.5678 32.24C88.5278 32.24 87.5878 32 86.7478 31.52C85.9078 31.0267 85.2411 30.3533 84.7478 29.5C84.2545 28.6467 84.0078 27.68 84.0078 26.6C84.0078 25.52 84.2478 24.56 84.7278 23.72C85.2211 22.88 85.8878 22.2133 86.7278 21.72C87.5678 21.2267 88.5145 20.98 89.5678 20.98C90.6078 20.98 91.5478 21.2267 92.3878 21.72C93.2278 22.2 93.8878 22.86 94.3678 23.7C94.8611 24.54 95.1078 25.5067 95.1078 26.6C95.1078 27.6933 94.8545 28.6667 94.3478 29.52C93.8411 30.36 93.1678 31.0267 92.3278 31.52C91.5011 32 90.5811 32.24 89.5678 32.24ZM89.5678 30.44C90.2345 30.44 90.8345 30.2733 91.3678 29.94C91.9145 29.6067 92.3411 29.1467 92.6478 28.56C92.9678 27.9733 93.1278 27.32 93.1278 26.6C93.1278 25.8667 92.9678 25.22 92.6478 24.66C92.3411 24.0867 91.9145 23.6333 91.3678 23.3C90.8345 22.9533 90.2345 22.78 89.5678 22.78C88.8878 22.78 88.2745 22.9533 87.7278 23.3C87.1945 23.6333 86.7678 24.0867 86.4478 24.66C86.1278 25.22 85.9678 25.8667 85.9678 26.6C85.9678 27.32 86.1278 27.9733 86.4478 28.56C86.7678 29.1467 87.1945 29.6067 87.7278 29.94C88.2745 30.2733 88.8878 30.44 89.5678 30.44ZM97.5338 32V21.22H99.3538V23.32L99.0538 23.14C99.3204 22.46 99.7471 21.9333 100.334 21.56C100.934 21.1733 101.634 20.98 102.434 20.98C103.207 20.98 103.894 21.1533 104.494 21.5C105.107 21.8467 105.587 22.3267 105.934 22.94C106.294 23.5533 106.474 24.2467 106.474 25.02V32H104.594V25.62C104.594 25.02 104.487 24.5133 104.274 24.1C104.06 23.6867 103.754 23.3667 103.354 23.14C102.967 22.9 102.52 22.78 102.014 22.78C101.507 22.78 101.054 22.9 100.654 23.14C100.267 23.3667 99.9604 23.6933 99.7338 24.12C99.5071 24.5333 99.3938 25.0333 99.3938 25.62V32H97.5338Z" fill="black"/>
<rect x="118" y="10" width="41" height="26" rx="13" fill="#F04950"/>
<path d="M138.116 29.168C137.565 29.168 137.052 29.07 136.576 28.874C136.1 28.678 135.689 28.4027 135.344 28.048C134.999 27.684 134.742 27.2547 134.574 26.76L135.736 26.284C135.932 26.8067 136.24 27.2127 136.66 27.502C137.08 27.7913 137.565 27.936 138.116 27.936C138.545 27.936 138.928 27.852 139.264 27.684C139.6 27.516 139.861 27.2733 140.048 26.956C140.244 26.6387 140.342 26.256 140.342 25.808C140.342 25.3507 140.244 24.968 140.048 24.66C139.861 24.3427 139.6 24.1 139.264 23.932C138.928 23.764 138.541 23.68 138.102 23.68C137.962 23.68 137.808 23.6893 137.64 23.708C137.481 23.7267 137.346 23.7547 137.234 23.792L136.94 23.162L139.726 19.76H135.106V18.57H141.28V19.718L138.62 22.994L138.536 22.63C139.161 22.6487 139.712 22.7933 140.188 23.064C140.664 23.3347 141.037 23.7033 141.308 24.17C141.579 24.6273 141.714 25.164 141.714 25.78C141.714 26.4147 141.56 26.9887 141.252 27.502C140.944 28.0153 140.519 28.4213 139.978 28.72C139.437 29.0187 138.816 29.168 138.116 29.168Z" fill="white"/>
<path d="M522.424 30.192C521.667 30.192 520.979 30.048 520.36 29.76C519.741 29.472 519.219 29.088 518.792 28.608C518.365 28.1173 518.061 27.5787 517.88 26.992L519.032 26.56C519.309 27.3707 519.741 27.9893 520.328 28.416C520.915 28.832 521.613 29.04 522.424 29.04C522.936 29.04 523.384 28.96 523.768 28.8C524.163 28.6293 524.467 28.3947 524.68 28.096C524.893 27.7973 525 27.4507 525 27.056C525 26.4693 524.84 26.016 524.52 25.696C524.2 25.376 523.741 25.1307 523.144 24.96L521 24.32C520.157 24.0747 519.507 23.664 519.048 23.088C518.6 22.512 518.376 21.856 518.376 21.12C518.376 20.4907 518.531 19.936 518.84 19.456C519.149 18.9653 519.571 18.5813 520.104 18.304C520.648 18.0267 521.261 17.888 521.944 17.888C522.659 17.888 523.299 18.0213 523.864 18.288C524.44 18.544 524.925 18.8853 525.32 19.312C525.715 19.7387 525.997 20.2133 526.168 20.736L525.048 21.184C524.792 20.48 524.392 19.9467 523.848 19.584C523.315 19.2213 522.685 19.04 521.96 19.04C521.501 19.04 521.096 19.12 520.744 19.28C520.403 19.44 520.136 19.6693 519.944 19.968C519.752 20.2667 519.656 20.6187 519.656 21.024C519.656 21.5147 519.811 21.9573 520.12 22.352C520.429 22.736 520.904 23.024 521.544 23.216L523.432 23.776C524.371 24.0533 525.08 24.4533 525.56 24.976C526.04 25.4987 526.28 26.1547 526.28 26.944C526.28 27.584 526.115 28.1493 525.784 28.64C525.464 29.12 525.011 29.4987 524.424 29.776C523.848 30.0533 523.181 30.192 522.424 30.192ZM532.48 30.192C531.68 30.192 530.954 30 530.304 29.616C529.664 29.2213 529.157 28.6827 528.784 28C528.41 27.3173 528.224 26.544 528.224 25.68C528.224 24.816 528.405 24.0533 528.768 23.392C529.13 22.72 529.621 22.192 530.24 21.808C530.869 21.424 531.573 21.232 532.352 21.232C532.97 21.232 533.52 21.3493 534 21.584C534.49 21.808 534.906 22.1173 535.248 22.512C535.589 22.896 535.85 23.3333 536.032 23.824C536.213 24.304 536.304 24.8 536.304 25.312C536.304 25.4187 536.298 25.5413 536.288 25.68C536.277 25.808 536.261 25.9413 536.24 26.08H528.992V24.96H535.552L534.976 25.44C535.072 24.8533 535.002 24.3307 534.768 23.872C534.544 23.4027 534.218 23.0347 533.792 22.768C533.365 22.4907 532.885 22.352 532.352 22.352C531.818 22.352 531.322 22.4907 530.864 22.768C530.416 23.0453 530.064 23.4347 529.808 23.936C529.552 24.4267 529.45 25.0133 529.504 25.696C529.45 26.3787 529.557 26.976 529.824 27.488C530.101 27.9893 530.474 28.3787 530.944 28.656C531.424 28.9333 531.936 29.072 532.48 29.072C533.109 29.072 533.637 28.9227 534.064 28.624C534.49 28.3253 534.837 27.952 535.104 27.504L536.128 28.048C535.957 28.432 535.696 28.7893 535.344 29.12C534.992 29.44 534.57 29.7013 534.08 29.904C533.6 30.096 533.066 30.192 532.48 30.192ZM542.324 30.192C541.524 30.192 540.798 30 540.148 29.616C539.508 29.2213 539.001 28.6827 538.628 28C538.254 27.3173 538.068 26.544 538.068 25.68C538.068 24.816 538.249 24.0533 538.612 23.392C538.974 22.72 539.465 22.192 540.084 21.808C540.713 21.424 541.417 21.232 542.196 21.232C542.814 21.232 543.364 21.3493 543.844 21.584C544.334 21.808 544.75 22.1173 545.092 22.512C545.433 22.896 545.694 23.3333 545.876 23.824C546.057 24.304 546.148 24.8 546.148 25.312C546.148 25.4187 546.142 25.5413 546.132 25.68C546.121 25.808 546.105 25.9413 546.084 26.08H538.836V24.96H545.396L544.82 25.44C544.916 24.8533 544.846 24.3307 544.612 23.872C544.388 23.4027 544.062 23.0347 543.636 22.768C543.209 22.4907 542.729 22.352 542.196 22.352C541.662 22.352 541.166 22.4907 540.708 22.768C540.26 23.0453 539.908 23.4347 539.652 23.936C539.396 24.4267 539.294 25.0133 539.348 25.696C539.294 26.3787 539.401 26.976 539.668 27.488C539.945 27.9893 540.318 28.3787 540.788 28.656C541.268 28.9333 541.78 29.072 542.324 29.072C542.953 29.072 543.481 28.9227 543.908 28.624C544.334 28.3253 544.681 27.952 544.948 27.504L545.972 28.048C545.801 28.432 545.54 28.7893 545.188 29.12C544.836 29.44 544.414 29.7013 543.924 29.904C543.444 30.096 542.91 30.192 542.324 30.192ZM553.462 30.192C552.918 30.192 552.433 30.0907 552.006 29.888C551.579 29.6747 551.243 29.3867 550.998 29.024C550.753 28.6613 550.63 28.2453 550.63 27.776C550.63 27.328 550.726 26.9227 550.918 26.56C551.11 26.1867 551.409 25.872 551.814 25.616C552.219 25.36 552.737 25.1787 553.366 25.072L556.726 24.512V25.6L553.654 26.112C553.035 26.2187 552.587 26.416 552.31 26.704C552.043 26.992 551.91 27.3333 551.91 27.728C551.91 28.112 552.059 28.4373 552.358 28.704C552.667 28.9707 553.062 29.104 553.542 29.104C554.129 29.104 554.641 28.9813 555.078 28.736C555.515 28.48 555.857 28.1387 556.102 27.712C556.347 27.2853 556.47 26.8107 556.47 26.288V24.112C556.47 23.6 556.283 23.184 555.91 22.864C555.537 22.544 555.051 22.384 554.454 22.384C553.931 22.384 553.473 22.5173 553.078 22.784C552.683 23.04 552.39 23.376 552.198 23.792L551.11 23.2C551.27 22.8373 551.521 22.5067 551.862 22.208C552.214 21.9093 552.614 21.6747 553.062 21.504C553.51 21.3227 553.974 21.232 554.454 21.232C555.083 21.232 555.638 21.3547 556.118 21.6C556.609 21.8453 556.987 22.1867 557.254 22.624C557.531 23.0507 557.67 23.5467 557.67 24.112V30H556.47V28.288L556.646 28.464C556.497 28.784 556.262 29.0773 555.942 29.344C555.633 29.6 555.265 29.808 554.838 29.968C554.422 30.1173 553.963 30.192 553.462 30.192ZM560.138 30V17.888H561.338V30H560.138ZM563.795 30V17.888H564.995V30H563.795ZM570.09 29.376V28.08L575.786 25.472V25.952L570.09 23.344V22.048L576.65 25.168V26.256L570.09 29.376Z" fill="black"/>
<path d="M517 32.8H578.633V33.44H517V32.8Z" fill="black"/>
</svg>
