<svg width="18" height="18" viewBox="0 0 18 18" fill="none" xmlns="http://www.w3.org/2000/svg">
<g id="vuesax/bulk/lock">
<g id="lock">
<path id="Vector" d="M14.0625 6V7.575C13.7325 7.53 13.3575 7.5075 12.9375 7.5V6C12.9375 3.6375 12.27 2.0625 9 2.0625C5.73 2.0625 5.0625 3.6375 5.0625 6V7.5C4.6425 7.5075 4.2675 7.53 3.9375 7.575V6C3.9375 3.825 4.4625 0.9375 9 0.9375C13.5375 0.9375 14.0625 3.825 14.0625 6Z" fill="#292D32"/>
<path id="Vector_2" opacity="0.4" d="M16.5 11.25V12.75C16.5 15.75 15.75 16.5 12.75 16.5H5.25C2.25 16.5 1.5 15.75 1.5 12.75V11.25C1.5 8.745 2.025 7.8075 3.9375 7.575C4.2675 7.53 4.6425 7.5075 5.0625 7.5H12.9375C13.3575 7.5075 13.7325 7.53 14.0625 7.575C15.975 7.8075 16.5 8.745 16.5 11.25Z" fill="#292D32"/>
<g id="Group">
<path id="Vector_3" d="M6 12.7492C5.9025 12.7492 5.805 12.7267 5.715 12.6892C5.6175 12.6517 5.54251 12.5992 5.46751 12.5317C5.33251 12.3892 5.25 12.1942 5.25 11.9992C5.25 11.9017 5.27249 11.8042 5.30999 11.7142C5.34749 11.6242 5.40001 11.5417 5.46751 11.4667C5.54251 11.3992 5.6175 11.3467 5.715 11.3092C5.9925 11.1892 6.32249 11.2567 6.53249 11.4667C6.59999 11.5417 6.65251 11.6242 6.69001 11.7142C6.72751 11.8042 6.75 11.9017 6.75 11.9992C6.75 12.1942 6.66749 12.3892 6.53249 12.5317C6.38999 12.6667 6.195 12.7492 6 12.7492Z" fill="#292D32"/>
</g>
<g id="Group_2">
<path id="Vector_4" d="M9 12.7504C8.7975 12.7504 8.61001 12.6679 8.46751 12.5329C8.40001 12.4579 8.34749 12.3754 8.30999 12.2854C8.27249 12.1954 8.25 12.0979 8.25 12.0004C8.25 11.7979 8.33251 11.6104 8.46751 11.4679C8.74501 11.1904 9.24749 11.1904 9.53249 11.4679C9.66749 11.6104 9.75 11.7979 9.75 12.0004C9.75 12.0979 9.72751 12.1954 9.69001 12.2854C9.65251 12.3754 9.59999 12.4579 9.53249 12.5329C9.38999 12.6679 9.195 12.7504 9 12.7504Z" fill="#292D32"/>
</g>
<g id="Group_3">
<path id="Vector_5" d="M12 12.7504C11.805 12.7504 11.61 12.6679 11.4675 12.5329C11.3325 12.3904 11.25 12.2029 11.25 12.0004C11.25 11.7979 11.3325 11.6104 11.4675 11.4679C11.7525 11.1904 12.255 11.1904 12.5325 11.4679C12.5625 11.5054 12.5925 11.5429 12.6225 11.5879C12.6525 11.6254 12.675 11.6704 12.69 11.7154C12.7125 11.7604 12.7275 11.8054 12.735 11.8504C12.7425 11.9029 12.75 11.9554 12.75 12.0004C12.75 12.1954 12.6675 12.3904 12.5325 12.5329C12.39 12.6679 12.195 12.7504 12 12.7504Z" fill="#292D32"/>
</g>
</g>
</g>
</svg>
