<svg width="18" height="18" viewBox="0 0 18 18" fill="none" xmlns="http://www.w3.org/2000/svg">
<path d="M9 11.8125C7.4475 11.8125 6.1875 10.5525 6.1875 9C6.1875 7.4475 7.4475 6.1875 9 6.1875C10.5525 6.1875 11.8125 7.4475 11.8125 9C11.8125 10.5525 10.5525 11.8125 9 11.8125ZM9 7.3125C8.07 7.3125 7.3125 8.07 7.3125 9C7.3125 9.93 8.07 10.6875 9 10.6875C9.93 10.6875 10.6875 9.93 10.6875 9C10.6875 8.07 9.93 7.3125 9 7.3125Z" fill="#292D32"/>
<path d="M11.4075 16.6425C11.25 16.6425 11.0925 16.62 10.935 16.5825C10.47 16.455 10.08 16.1625 9.8325 15.75L9.7425 15.6C9.3 14.835 8.6925 14.835 8.25 15.6L8.1675 15.7425C7.92 16.1625 7.53 16.4625 7.065 16.5825C6.5925 16.71 6.105 16.6425 5.6925 16.395L4.4025 15.6525C3.945 15.39 3.615 14.9625 3.4725 14.445C3.3375 13.9275 3.405 13.395 3.6675 12.9375C3.885 12.555 3.945 12.21 3.8175 11.9925C3.69 11.775 3.3675 11.6475 2.925 11.6475C1.83 11.6475 0.9375 10.755 0.9375 9.65997V8.33997C0.9375 7.24497 1.83 6.35247 2.925 6.35247C3.3675 6.35247 3.69 6.22497 3.8175 6.00747C3.945 5.78997 3.8925 5.44497 3.6675 5.06247C3.405 4.60497 3.3375 4.06497 3.4725 3.55497C3.6075 3.03747 3.9375 2.60997 4.4025 2.34747L5.7 1.60497C6.5475 1.10247 7.665 1.39497 8.175 2.25747L8.265 2.40747C8.7075 3.17247 9.315 3.17247 9.7575 2.40747L9.84 2.26497C10.35 1.39497 11.4675 1.10247 12.3225 1.61247L13.6125 2.35497C14.07 2.61747 14.4 3.04497 14.5425 3.56247C14.6775 4.07997 14.61 4.61247 14.3475 5.06997C14.13 5.45247 14.07 5.79747 14.1975 6.01497C14.325 6.23247 14.6475 6.35997 15.09 6.35997C16.185 6.35997 17.0775 7.25247 17.0775 8.34747V9.66747C17.0775 10.7625 16.185 11.655 15.09 11.655C14.6475 11.655 14.325 11.7825 14.1975 12C14.07 12.2175 14.1225 12.5625 14.3475 12.945C14.61 13.4025 14.685 13.9425 14.5425 14.4525C14.4075 14.97 14.0775 15.3975 13.6125 15.66L12.315 16.4025C12.03 16.56 11.7225 16.6425 11.4075 16.6425ZM9 13.8675C9.6675 13.8675 10.29 14.2875 10.7175 15.03L10.8 15.1725C10.89 15.33 11.04 15.4425 11.22 15.4875C11.4 15.5325 11.58 15.51 11.73 15.42L13.0275 14.67C13.2225 14.5575 13.3725 14.37 13.4325 14.145C13.4925 13.92 13.4625 13.6875 13.35 13.4925C12.9225 12.7575 12.87 12 13.2 11.4225C13.53 10.845 14.2125 10.515 15.0675 10.515C15.5475 10.515 15.93 10.1325 15.93 9.65247V8.33247C15.93 7.85997 15.5475 7.46997 15.0675 7.46997C14.2125 7.46997 13.53 7.13997 13.2 6.56247C12.87 5.98497 12.9225 5.22747 13.35 4.49247C13.4625 4.29747 13.4925 4.06497 13.4325 3.83997C13.3725 3.61497 13.23 3.43497 13.035 3.31497L11.7375 2.57247C11.415 2.37747 10.9875 2.48997 10.7925 2.81997L10.71 2.96247C10.2825 3.70497 9.66 4.12497 8.9925 4.12497C8.325 4.12497 7.7025 3.70497 7.275 2.96247L7.1925 2.81247C7.005 2.49747 6.585 2.38497 6.2625 2.57247L4.965 3.32247C4.77 3.43497 4.62 3.62247 4.56 3.84747C4.5 4.07247 4.53 4.30497 4.6425 4.49997C5.07 5.23497 5.1225 5.99247 4.7925 6.56997C4.4625 7.14747 3.78 7.47747 2.925 7.47747C2.445 7.47747 2.0625 7.85997 2.0625 8.33997V9.65997C2.0625 10.1325 2.445 10.5225 2.925 10.5225C3.78 10.5225 4.4625 10.8525 4.7925 11.43C5.1225 12.0075 5.07 12.765 4.6425 13.5C4.53 13.695 4.5 13.9275 4.56 14.1525C4.62 14.3775 4.7625 14.5575 4.9575 14.6775L6.255 15.42C6.4125 15.5175 6.6 15.54 6.7725 15.495C6.9525 15.45 7.1025 15.33 7.2 15.1725L7.2825 15.03C7.71 14.295 8.3325 13.8675 9 13.8675Z" fill="#292D32"/>
</svg>
