<svg width="20" height="19" viewBox="0 0 20 19" fill="none" xmlns="http://www.w3.org/2000/svg">
<g id="star-fill-24">
<path id="Icon" d="M0.556648 8.71329C0.343314 8.81048 0.208252 9.01104 0.208252 9.23064C0.208252 9.45024 0.343314 9.6508 0.556648 9.74799L5.72067 12.1005L6.54876 17.361C6.58297 17.5783 6.74787 17.7589 6.97413 17.8267C7.20038 17.8946 7.44876 17.838 7.61482 17.6807L11.6344 13.8742L17.3103 14.7728C17.5447 14.8099 17.7817 14.721 17.9215 14.5433C18.0614 14.3657 18.0798 14.1301 17.9691 13.9357L15.2894 9.23064L17.9691 4.52554C18.0798 4.33116 18.0614 4.09563 17.9215 3.91796C17.7817 3.7403 17.5447 3.65133 17.3103 3.68845L11.6344 4.58705L7.61482 0.78054C7.44876 0.623287 7.20038 0.566692 6.97413 0.634552C6.74787 0.702412 6.58297 0.882959 6.54876 1.10028L5.72067 6.36074L0.556648 8.71329Z" fill="#B3B3B3"/>
</g>
</svg>
