<svg width="86" height="86" viewBox="0 0 86 86" fill="none" xmlns="http://www.w3.org/2000/svg">
<path opacity="0.4" d="M39.2734 7.38175L19.5651 14.7634C15.8026 16.1968 12.7209 20.6401 12.7209 24.6893V53.7142C12.7209 56.6167 14.6201 60.4509 16.9493 62.1709L36.6576 76.8984C40.1334 79.5142 45.8309 79.5142 49.3068 76.8984L69.0151 62.1709C71.3443 60.4151 73.2435 56.6167 73.2435 53.7142V24.6893C73.2435 20.6759 70.1618 16.1968 66.3993 14.7993L46.6909 7.41758C44.6843 6.62925 41.3159 6.62925 39.2734 7.38175Z" fill="#FF0000"/>
<path d="M38.1984 50.9909C37.5176 50.9909 36.8368 50.7401 36.2993 50.2026L30.5301 44.4334C29.4909 43.3943 29.4909 41.6743 30.5301 40.6351C31.5693 39.5959 33.2893 39.5959 34.3284 40.6351L38.1984 44.5051L51.7076 30.9959C52.7468 29.9568 54.4668 29.9568 55.5059 30.9959C56.5451 32.0351 56.5451 33.7551 55.5059 34.7943L40.0976 50.2026C39.5601 50.7401 38.8793 50.9909 38.1984 50.9909Z" fill="#FF0000"/>
</svg>
