<svg width="18" height="18" viewBox="0 0 18 18" fill="none" xmlns="http://www.w3.org/2000/svg">
<path d="M13.5 14.1451H12.93C12.33 14.1451 11.76 14.3775 11.34 14.7975L10.0575 16.0651C9.4725 16.6426 8.52 16.6426 7.935 16.0651L6.6525 14.7975C6.2325 14.3775 5.655 14.1451 5.0625 14.1451H4.5C3.255 14.1451 2.25 13.1476 2.25 11.9176V3.73505C2.25 2.50505 3.255 1.50757 4.5 1.50757H13.5C14.745 1.50757 15.75 2.50505 15.75 3.73505V11.9176C15.75 13.1401 14.745 14.1451 13.5 14.1451Z" stroke="#292D32" stroke-miterlimit="10" stroke-linecap="round" stroke-linejoin="round"/>
<path d="M5.25 6.86984C5.25 6.17234 5.82 5.60229 6.5175 5.60229C7.215 5.60229 7.785 6.17234 7.785 6.86984C7.785 8.27984 5.7825 8.42984 5.34 9.77234C5.25 10.0498 5.4825 10.3273 5.775 10.3273H7.785" stroke="#292D32" stroke-linecap="round" stroke-linejoin="round"/>
<path d="M12.0301 10.3199V6.03743C12.0301 5.84243 11.9026 5.66989 11.7151 5.61739C11.5276 5.56489 11.3251 5.63989 11.2201 5.80489C10.6801 6.67489 10.0951 7.6649 9.58507 8.5349C9.50257 8.6774 9.50257 8.8649 9.58507 9.0074C9.66757 9.1499 9.82507 9.23985 9.99757 9.23985H12.7501" stroke="#292D32" stroke-linecap="round" stroke-linejoin="round"/>
</svg>
