<svg width="56" height="56" viewBox="0 0 56 56" fill="none" xmlns="http://www.w3.org/2000/svg">
<rect x="0.5" y="0.5" width="55" height="55" rx="27.5" fill="white"/>
<rect x="0.5" y="0.5" width="55" height="55" rx="27.5" stroke="#959595"/>
<path opacity="0.4" d="M34.3801 28.8398V33.7698C34.3801 35.0398 33.3901 36.3998 32.2001 36.7998L29.0101 37.8598C28.4501 38.0498 27.5401 38.0498 26.9901 37.8598L23.8001 36.7998C22.6001 36.3998 21.6201 35.0398 21.6201 33.7698L21.6301 28.8398L26.0501 31.7198C27.1301 32.4298 28.9101 32.4298 29.9901 31.7198L34.3801 28.8398Z" fill="black"/>
<path d="M35.98 22.4601L29.99 18.5301C28.91 17.8201 27.13 17.8201 26.05 18.5301L20.03 22.4601C18.1 23.7101 18.1 26.5401 20.03 27.8001L21.63 28.8401L26.05 31.7201C27.13 32.4301 28.91 32.4301 29.99 31.7201L34.38 28.8401L35.75 27.9401V31.0001C35.75 31.4101 36.09 31.7501 36.5 31.7501C36.91 31.7501 37.25 31.4101 37.25 31.0001V26.0801C37.65 24.7901 37.24 23.2901 35.98 22.4601Z" fill="black"/>
</svg>
