<svg width="96" height="96" viewBox="0 0 96 96" fill="none" xmlns="http://www.w3.org/2000/svg">
<g id="vuesax/bulk/tick-circle">
<g id="tick-circle">
<path id="Vector" opacity="0.4" d="M48 88C70.0914 88 88 70.0914 88 48C88 25.9086 70.0914 8 48 8C25.9086 8 8 25.9086 8 48C8 70.0914 25.9086 88 48 88Z" fill="#0EB500"/>
<path id="Vector_2" d="M42.32 62.32C41.52 62.32 40.76 62 40.2 61.44L28.88 50.12C27.72 48.96 27.72 47.04 28.88 45.88C30.04 44.72 31.96 44.72 33.12 45.88L42.32 55.08L62.88 34.52C64.04 33.36 65.96 33.36 67.12 34.52C68.28 35.68 68.28 37.6 67.12 38.76L44.44 61.44C43.88 62 43.12 62.32 42.32 62.32Z" fill="#0EB500"/>
</g>
</g>
</svg>
