<svg width="24" height="24" viewBox="0 0 24 24" fill="none" xmlns="http://www.w3.org/2000/svg">
<g id="vuesax/bulk/user-edit">
<g id="user-edit">
<path id="Vector" d="M12 12C14.7614 12 17 9.76142 17 7C17 4.23858 14.7614 2 12 2C9.23858 2 7 4.23858 7 7C7 9.76142 9.23858 12 12 12Z" fill="#292D32"/>
<path id="Vector_2" opacity="0.4" d="M11.9999 14.5C6.98994 14.5 2.90991 17.86 2.90991 22C2.90991 22.28 3.12991 22.5 3.40991 22.5H20.59C20.87 22.5 21.09 22.28 21.09 22C21.09 17.86 17.0099 14.5 11.9999 14.5Z" fill="#292D32"/>
<path id="Vector_3" d="M21.43 14.7393C20.53 13.8393 19.8201 14.1293 19.2101 14.7393L15.67 18.2794C15.53 18.4194 15.4 18.6794 15.37 18.8694L15.18 20.2193C15.11 20.7093 15.45 21.0493 15.94 20.9793L17.29 20.7893C17.48 20.7593 17.75 20.6293 17.88 20.4893L21.42 16.9494C22.04 16.3494 22.33 15.6393 21.43 14.7393Z" fill="#292D32"/>
</g>
</g>
</svg>
