<svg width="14" height="14" viewBox="0 0 14 14" fill="none" xmlns="http://www.w3.org/2000/svg">
<path d="M12.5767 6.26483L11.7833 5.34316C11.6317 5.16816 11.5092 4.8415 11.5092 4.60816V3.6165C11.5092 2.99816 11.0017 2.49066 10.3833 2.49066H9.39167C9.16417 2.49066 8.83167 2.36816 8.65667 2.2165L7.735 1.42316C7.3325 1.079 6.67334 1.079 6.265 1.42316L5.34917 2.22233C5.17417 2.36816 4.84167 2.49066 4.61417 2.49066H3.605C2.98667 2.49066 2.47917 2.99816 2.47917 3.6165V4.614C2.47917 4.8415 2.35667 5.16816 2.21084 5.34316L1.42334 6.27066C1.085 6.67316 1.085 7.3265 1.42334 7.729L2.21084 8.6565C2.35667 8.8315 2.47917 9.15816 2.47917 9.38566V10.3832C2.47917 11.0015 2.98667 11.509 3.605 11.509H4.61417C4.84167 11.509 5.17417 11.6315 5.34917 11.7832L6.27084 12.5765C6.67334 12.9207 7.3325 12.9207 7.74084 12.5765L8.6625 11.7832C8.8375 11.6315 9.16417 11.509 9.3975 11.509H10.3892C11.0075 11.509 11.515 11.0015 11.515 10.3832V9.3915C11.515 9.164 11.6375 8.8315 11.7892 8.6565L12.5825 7.73483C12.9208 7.33233 12.9208 6.66733 12.5767 6.26483ZM9.42667 5.89733L6.60917 8.71483C6.5275 8.7965 6.41667 8.84316 6.3 8.84316C6.18334 8.84316 6.0725 8.7965 5.99084 8.71483L4.57917 7.30316C4.41 7.134 4.41 6.854 4.57917 6.68483C4.74834 6.51566 5.02834 6.51566 5.1975 6.68483L6.3 7.78733L8.80834 5.279C8.9775 5.10983 9.2575 5.10983 9.42667 5.279C9.59584 5.44816 9.59584 5.72816 9.42667 5.89733Z" fill="#EB1D2F"/>
</svg>
