<svg width="32" height="32" viewBox="0 0 32 32" fill="none" xmlns="http://www.w3.org/2000/svg">
<path d="M2.66667 13.3332V18.6665C2.66667 21.3332 4 22.6665 6.66667 22.6665H8.57333C9.06667 22.6665 9.56 22.8132 9.98667 23.0665L13.88 25.5065C17.24 27.6132 20 26.0799 20 22.1199V9.87988C20 5.90655 17.24 4.38655 13.88 6.49322L9.98667 8.93321C9.56 9.18655 9.06667 9.33322 8.57333 9.33322H6.66667C4 9.33322 2.66667 10.6665 2.66667 13.3332Z" stroke="#292D32" stroke-width="1.5"/>
<path d="M24 10.6665C26.3733 13.8265 26.3733 18.1732 24 21.3332" stroke="#292D32" stroke-width="1.5" stroke-linecap="round" stroke-linejoin="round"/>
<path d="M26.44 7.3335C30.2933 12.4668 30.2933 19.5335 26.44 24.6668" stroke="#292D32" stroke-width="1.5" stroke-linecap="round" stroke-linejoin="round"/>
</svg>
