<svg width="32" height="32" viewBox="0 0 32 32" fill="none" xmlns="http://www.w3.org/2000/svg">
<g id="vuesax/bulk/volume-high">
<g id="volume-high">
<path id="Vector" d="M24 22.3333C23.7867 22.3333 23.5867 22.2666 23.4 22.1333C22.96 21.8 22.8667 21.1733 23.2 20.7333C25.2933 17.9466 25.2933 14.0533 23.2 11.2666C22.8667 10.8266 22.96 10.2 23.4 9.86662C23.84 9.53329 24.4667 9.62662 24.8 10.0666C27.4133 13.56 27.4133 18.44 24.8 21.9333C24.6 22.2 24.3067 22.3333 24 22.3333Z" fill="#292D32"/>
<path id="Vector_2" d="M26.44 25.6667C26.2267 25.6667 26.0267 25.6 25.84 25.4667C25.4 25.1334 25.3067 24.5067 25.64 24.0667C29.2 19.32 29.2 12.68 25.64 7.93337C25.3067 7.49337 25.4 6.8667 25.84 6.53337C26.28 6.20004 26.9067 6.29337 27.24 6.73337C31.3333 12.1867 31.3333 19.8134 27.24 25.2667C27.0533 25.5334 26.7467 25.6667 26.44 25.6667Z" fill="#292D32"/>
<path id="Vector_3" opacity="0.4" d="M21 9.88004V22.12C21 24.4134 20.1733 26.1334 18.6933 26.96C18.0933 27.2934 17.4267 27.4534 16.7333 27.4534C15.6667 27.4534 14.52 27.0934 13.3467 26.36L9.45333 23.92C9.18667 23.76 8.88 23.6667 8.57333 23.6667H7.33333V8.33337H8.57333C8.88 8.33337 9.18667 8.24004 9.45333 8.08004L13.3467 5.64004C15.2933 4.42671 17.2 4.21337 18.6933 5.04004C20.1733 5.86671 21 7.58671 21 9.88004Z" fill="#292D32"/>
<path id="Vector_4" d="M7.33333 8.33325V23.6666H6.66667C3.44 23.6666 1.66667 21.8933 1.66667 18.6666V13.3333C1.66667 10.1066 3.44 8.33325 6.66667 8.33325H7.33333Z" fill="#292D32"/>
</g>
</g>
</svg>
